<svg width="333" height="250" viewBox="0 0 333 250" fill="none" xmlns="http://www.w3.org/2000/svg">
<path d="M43.3453 187.071C43.3453 187.071 34.1462 182.23 30.9577 175.183C27.7692 168.136 30.8828 158.262 29.9254 154.949C35.8112 161.172 39.4284 162.979 42.0008 170.159C44.5732 177.335 43.8281 185.052 43.3453 187.071ZM53.0398 198.818C53.0398 198.818 43.5701 206.323 33.605 199.076C26.637 193.207 22 185.198 22 185.198C22 185.198 33.2013 186.709 38.804 188.028C44.4067 189.352 51.0293 195.833 53.0398 198.818ZM289.853 187.071C289.853 187.071 299.052 182.23 302.24 175.183C305.429 168.136 302.315 158.262 303.273 154.949C297.387 161.172 293.77 162.979 291.197 170.159C288.625 177.335 289.374 185.052 289.853 187.071ZM280.158 198.818C280.158 198.818 289.628 206.323 299.593 199.076C306.561 193.207 311.198 185.198 311.198 185.198C311.198 185.198 299.997 186.709 294.394 188.028C288.791 189.352 282.169 195.833 280.158 198.818Z" fill="#2B1700"/>
<path d="M88.3877 226.631C88.3877 226.631 79.0346 234.707 54.8921 228.613C37.2972 224.171 22.7992 206.797 22.7992 206.797C22.7992 206.797 57.3396 193.719 88.3877 226.631Z" fill="#2B1700"/>
<path d="M86.8934 227.035C86.8934 227.035 72.0998 215.555 73.923 177.876C75.2509 150.412 96.721 123.676 96.721 123.676C96.721 123.676 126.487 171.066 86.8934 227.035Z" fill="#741AAC"/>
<path d="M243.457 225.229C243.457 225.229 252.694 233.204 276.537 227.185C293.915 222.798 308.23 205.644 308.23 205.644C308.23 205.644 274.123 192.724 243.457 225.229Z" fill="#2B1700"/>
<path d="M245.526 227.035C245.526 227.035 260.32 215.555 258.497 177.876C257.165 150.412 235.699 123.676 235.699 123.676C235.699 123.676 205.933 171.066 245.526 227.035Z" fill="#741AAC"/>
<path d="M292.875 129.778C292.875 60.4936 236.71 4.32901 167.425 4.32901C98.1404 4.32901 41.9758 60.4936 41.9758 129.778C41.9758 169.301 60.2575 204.545 88.8206 227.539H246.034C274.589 204.545 292.875 169.301 292.875 129.778Z" fill="url(#paint0_linear_12_200)"/>
<path d="M153.056 42.9362C153.056 43.2109 152.836 43.4315 152.561 43.4315C152.286 43.4315 152.066 43.2109 152.066 42.9362C152.066 42.6615 152.286 42.4409 152.561 42.4409C152.836 42.4409 153.056 42.6656 153.056 42.9362ZM188.438 73.5139C188.438 73.7886 188.217 74.0093 187.942 74.0093C187.667 74.0093 187.447 73.7886 187.447 73.5139C187.447 73.2392 187.667 73.0186 187.942 73.0186C188.217 73.0186 188.438 73.2392 188.438 73.5139ZM129.509 81.123C129.509 81.3977 129.288 81.6183 129.014 81.6183C128.739 81.6183 128.518 81.3977 128.518 81.123C128.518 80.8482 128.739 80.6276 129.014 80.6276C129.288 80.6276 129.509 80.8482 129.509 81.123ZM92.059 75.1415C92.059 75.4162 91.8384 75.6368 91.5637 75.6368C91.289 75.6368 91.0684 75.4162 91.0684 75.1415C91.0684 74.8667 91.289 74.6461 91.5637 74.6461C91.8343 74.6461 92.059 74.8667 92.059 75.1415ZM237.16 105.265C237.16 105.54 236.939 105.761 236.664 105.761C236.39 105.761 236.169 105.54 236.169 105.265C236.169 104.991 236.39 104.77 236.664 104.77C236.939 104.77 237.16 104.991 237.16 105.265Z" fill="white"/>
<path d="M238.783 72.2943L239.307 73.3599L240.485 73.5306L239.632 74.3631L239.836 75.5369L238.783 74.9833L237.726 75.5369L237.93 74.3631L237.076 73.5306L238.254 73.3599L238.783 72.2943Z" fill="#2B1700"/>
<path d="M116.726 28.9419L117.384 30.278L118.857 30.4903L117.792 31.5309L118.041 32.9961L116.726 32.3052L115.406 32.9961L115.66 31.5309L114.595 30.4903L116.068 30.278L116.726 28.9419ZM264.287 94.2598L264.944 95.5918L266.418 95.8083L265.352 96.8447L265.606 98.3141L264.287 97.6189L262.971 98.3141L263.221 96.8447L262.155 95.8083L263.629 95.5918L264.287 94.2598Z" fill="#2B1700"/>
<path d="M69.9811 92.037C70.9444 92.037 71.7252 91.2562 71.7252 90.2929C71.7252 89.3297 70.9444 88.5489 69.9811 88.5489C69.0179 88.5489 68.237 89.3297 68.237 90.2929C68.237 91.2562 69.0179 92.037 69.9811 92.037Z" fill="#2B1700"/>
<path d="M235.361 172.819C235.241 171.791 241.135 151.29 247.691 142.17C254.247 133.05 261.618 116.196 261.618 116.196C261.618 116.196 264.099 131.185 257.281 141.03C250.463 150.874 247.57 155.736 247.57 155.736C247.57 155.736 252.332 146.137 263.716 145.475C275.101 144.813 272.175 155.236 272.175 155.236C272.175 155.236 259.612 137.279 233.538 177.901" fill="url(#paint1_linear_12_200)"/>
<path d="M219.781 192.703C219.781 192.703 201.882 196.87 189.761 189.448C177.644 182.03 169.698 171.503 169.698 171.503C169.698 171.503 183.239 166.945 191.967 168.752C200.696 170.554 208.334 180.432 208.355 179.637C208.376 178.838 199.044 166.209 198.286 157.9C197.528 149.588 201.475 134.024 201.475 134.024C201.475 134.024 212.967 142.878 215.831 149.804C218.695 156.731 220.922 171.678 220.922 171.678C220.922 171.678 219.398 158.604 224.697 147.756C229.996 136.909 243.462 128.138 243.462 128.138C243.462 128.138 248.469 141.675 244.357 154.878C240.244 168.082 230.72 176.765 230.72 176.765C230.72 176.765 243.899 167.253 252.032 165.951C260.166 164.648 271.446 171.711 271.446 171.711C271.446 171.711 259.912 184.544 250.987 186.85C242.067 189.156 233.097 187.974 233.097 187.974C233.097 187.974 245.472 188.187 252.752 193.115C260.033 198.039 266.235 208.204 266.235 208.204C266.235 208.204 248.994 210.248 238.121 204.724C227.249 199.196 219.781 192.703 219.781 192.703Z" fill="url(#paint2_linear_12_200)"/>
<path d="M236.822 188.241C234.591 188.003 233.097 187.974 233.097 187.974C233.097 187.974 234.537 188.157 236.822 188.241Z" fill="url(#paint3_linear_12_200)"/>
<path d="M204.084 143.59C204.084 143.59 206.278 172.581 219.923 188.108C218.016 183.766 212.901 176.319 210.062 166.013C207.223 155.707 204.084 143.59 204.084 143.59Z" fill="url(#paint4_linear_12_200)"/>
<path d="M219.552 189.323C219.552 189.323 193.895 181.889 183.98 177.273C176.616 174.059 173.186 172.423 173.186 172.423C173.186 172.423 178.747 176.956 194.627 183.079C210.511 189.206 219.552 189.323 219.552 189.323Z" fill="url(#paint5_linear_12_200)"/>
<path d="M222.766 189.881C222.766 189.881 238.5 194.06 251.737 200.841C257.997 204.1 261.935 206.443 261.935 206.443C261.935 206.443 251.196 201.632 243.799 198.697C236.406 195.758 222.766 189.881 222.766 189.881Z" fill="url(#paint6_linear_12_200)"/>
<path d="M100.904 164.444C101.025 163.416 95.131 142.915 88.575 133.795C82.0191 124.675 74.6473 107.821 74.6473 107.821C74.6473 107.821 72.1664 122.81 78.9846 132.655C85.8028 142.499 88.6957 147.361 88.6957 147.361C88.6957 147.361 83.9338 137.762 72.5494 137.1C61.165 136.438 64.0912 146.861 64.0912 146.861C64.0912 146.861 76.6536 128.904 102.728 169.526" fill="url(#paint7_linear_12_200)"/>
<path d="M226 120.076C226 120.076 218.632 131.11 214.02 147.149C209.408 163.187 211.24 181.185 211.24 181.185" stroke="black" stroke-width="2.31" stroke-miterlimit="10"/>
<path d="M223.344 138.47C223.344 138.47 217.425 140.355 215.294 143.04C215.361 140.089 216.26 129.4 216.26 129.4M219.594 155.59C219.594 155.59 213.9 156.552 211.706 158.679C210.336 155.486 209.063 147.165 209.063 147.165M214.399 170.196C214.399 170.196 211.927 171.662 210.878 173.039C209.025 170.255 204.114 165.056 204.114 165.056" stroke="black" stroke-width="2.31" stroke-miterlimit="10"/>
<path d="M225.101 121.104C225.101 121.104 232.348 120.887 235.507 115.884C238.666 110.881 239.299 106.523 239.299 106.523C239.299 106.523 232.598 107.538 228.651 111.055C224.705 114.573 225.101 121.104 225.101 121.104ZM223.344 138.47C223.344 138.47 227.303 132.326 232.672 129.791C237.422 127.876 243.932 131.431 243.932 131.431C243.932 131.431 243.145 136.276 235.878 139.015C231.037 140.838 226.116 139.627 223.344 138.47ZM209.433 148.622C209.433 148.622 211.968 138.316 207.219 134.253C202.474 130.19 200.621 129.233 200.621 129.233C200.621 129.233 198.736 137.204 200.817 141.512C202.898 145.812 209.433 148.622 209.433 148.622ZM218.166 155.831C218.166 155.831 224.439 149.813 229.13 149.808C233.825 149.8 238.687 151.902 238.687 151.902C238.687 151.902 235.744 157.909 228.464 158.088C221.18 158.262 218.166 155.831 218.166 155.831ZM204.959 165.926C204.959 165.926 203.681 157.946 197.703 156.364C192.617 155.111 190.436 156.285 190.436 156.285C190.436 156.285 190.681 160.19 193.674 163.457C196.671 166.721 204.959 165.926 204.959 165.926ZM213.666 170.629C213.666 170.629 214.911 165.996 218.84 164.798C222.903 163.624 226.387 165.717 226.387 165.717C226.387 165.717 225.879 170.554 221.325 171.666C216.772 172.777 213.666 170.629 213.666 170.629ZM216.493 130.207C216.493 130.207 219.161 122.631 217.488 118.968C215.814 115.301 212.143 113.674 212.143 113.674C212.143 113.674 209.292 117.907 210.324 121.982C211.352 126.057 216.493 130.207 216.493 130.207Z" fill="#00759F"/>
<path d="M99.9928 121.736C99.9928 121.736 110.337 130.045 119.557 143.956C128.776 157.867 132.444 175.583 132.444 175.583" stroke="black" stroke-width="2.31" stroke-miterlimit="10"/>
<path d="M108.051 138.478C108.051 138.478 114.266 138.495 117.105 140.418C116.156 137.621 112.085 127.697 112.085 127.697M116.776 153.68C116.776 153.68 122.499 152.884 125.226 154.254C125.571 150.799 124.285 142.478 124.285 142.478M126.121 166.046C126.121 166.046 128.918 166.7 130.333 167.699C131.266 164.485 134.383 158.05 134.383 158.05" stroke="black" stroke-width="2.31" stroke-miterlimit="10"/>
<path d="M101.158 122.444C101.158 122.444 94.1777 124.417 89.6656 120.592C85.1493 116.766 83.2345 112.804 83.2345 112.804C83.2345 112.804 89.932 111.755 94.7522 113.928C99.5723 116.096 101.158 122.444 101.158 122.444ZM108.051 138.478C108.051 138.478 102.428 133.808 96.5462 133.004C91.4388 132.605 86.3023 137.954 86.3023 137.954C86.3023 137.954 88.5084 142.337 96.2632 142.765C101.429 143.048 105.758 140.414 108.051 138.478ZM124.373 143.977C124.373 143.977 118.857 134.911 122.162 129.604C125.467 124.301 126.949 122.831 126.949 122.831C126.949 122.831 131.145 129.87 130.454 134.603C129.759 139.336 124.373 143.977 124.373 143.977ZM118.212 153.48C118.212 153.48 110.42 149.625 105.941 151.032C101.462 152.439 97.4536 155.902 97.4536 155.902C97.4536 155.902 102.066 160.747 109.067 158.729C116.068 156.71 118.212 153.48 118.212 153.48ZM133.846 159.137C133.846 159.137 132.664 151.14 137.888 147.835C142.363 145.109 144.798 145.575 144.798 145.575C144.798 145.575 145.739 149.371 143.866 153.388C141.988 157.405 133.846 159.137 133.846 159.137ZM126.949 166.242C126.949 166.242 124.368 162.196 120.264 162.233C116.039 162.338 113.346 165.376 113.346 165.376C113.346 165.376 115.286 169.838 119.96 169.53C124.635 169.222 126.949 166.242 126.949 166.242ZM112.106 128.542C112.106 128.542 107.285 122.119 107.777 118.119C108.268 114.119 111.286 111.463 111.286 111.463C111.286 111.463 115.277 114.644 115.519 118.839C115.76 123.035 112.106 128.542 112.106 128.542Z" fill="#00759F"/>
<path d="M211.127 228.933C211.127 228.933 195.659 238.857 181.753 235.93C167.85 233.004 156.836 225.749 156.836 225.749C156.836 225.749 168.066 216.92 176.895 215.692C185.724 214.464 196.234 221.212 195.984 220.454C195.734 219.697 182.71 210.926 179.209 203.351C175.709 195.775 174.21 179.787 174.21 179.787C174.21 179.787 188.005 184.278 193.025 189.843C198.045 195.409 205.154 208.745 205.154 208.745C205.154 208.745 199.335 196.936 200.692 184.94C202.049 172.944 211.798 160.165 211.798 160.165C211.798 160.165 221.055 171.241 221.604 185.056C222.158 198.876 216.093 210.248 216.093 210.248C216.093 210.248 225.321 196.87 232.548 192.915C239.774 188.961 252.769 191.833 252.769 191.833C252.769 191.833 246.201 207.792 238.567 212.954C230.933 218.119 222.087 220.009 222.087 220.009C222.087 220.009 233.817 216.063 242.329 218.261C250.842 220.463 260.091 227.959 260.091 227.959C260.091 227.959 244.531 235.664 232.439 234.103C220.339 232.546 211.127 228.933 211.127 228.933Z" fill="url(#paint8_linear_12_200)"/>
<path d="M225.684 219.014C223.502 219.539 222.083 220.009 222.083 220.009C222.083 220.009 223.507 219.705 225.684 219.014Z" fill="url(#paint9_linear_12_200)"/>
<path d="M179.875 187.92C179.875 187.92 191.659 214.502 209.72 224.554C206.47 221.1 199.152 215.801 193.025 207.043C186.893 198.285 179.875 187.92 179.875 187.92Z" fill="url(#paint10_linear_12_200)"/>
<path d="M209.779 225.828C209.779 225.828 183.114 227.427 172.225 226.398C164.212 225.836 160.432 225.445 160.432 225.445C160.432 225.445 167.192 227.855 184.208 228.296C201.221 228.742 209.779 225.828 209.779 225.828Z" fill="url(#paint11_linear_12_200)"/>
<path d="M120.285 191.533C120.285 191.533 137.31 184.615 142.933 171.566C148.557 158.516 148.981 145.338 148.981 145.338C148.981 145.338 135.291 149.421 129.201 155.931C123.111 162.437 122.562 174.912 122.087 174.271C121.613 173.63 121.954 157.934 117.779 150.703C113.604 143.477 101.408 133.034 101.408 133.034C101.408 133.034 97.1248 146.895 98.7773 154.204C100.43 161.513 107.231 175.012 107.231 175.012C107.231 175.012 100.938 163.449 90.3524 157.642C79.7672 151.836 63.7082 152.431 63.7082 152.431C63.7082 152.431 67.4212 166.379 78.3935 174.796C89.3659 183.212 102.153 184.815 102.153 184.815C102.153 184.815 85.9027 184.644 78.5059 188.266C71.1092 191.891 65.9643 204.166 65.9643 204.166C65.9643 204.166 82.7891 208 91.4097 204.741C100.03 201.482 106.674 195.346 106.674 195.346C106.674 195.346 96.6877 202.651 93.5783 210.876C90.469 219.102 91.264 230.977 91.264 230.977C91.264 230.977 106.528 222.706 112.226 211.925C117.929 201.145 120.285 191.533 120.285 191.533Z" fill="url(#paint12_linear_12_200)"/>
<path d="M103.789 197.71C105.479 196.233 106.678 195.346 106.678 195.346C106.678 195.346 105.608 196.328 103.789 197.71Z" fill="url(#paint13_linear_12_200)"/>
<path d="M134.887 228.263C134.887 228.263 151.183 236.759 164.77 232.596C178.356 228.434 188.675 220.221 188.675 220.221C188.675 220.221 176.699 212.433 167.796 212.004C158.892 211.576 149.031 219.235 149.21 218.456C149.389 217.678 161.577 207.775 164.382 199.917C167.188 192.058 167.25 175.999 167.25 175.999C167.25 175.999 153.914 181.71 149.41 187.704C144.91 193.698 139.025 207.617 139.025 207.617C139.025 207.617 143.761 195.334 141.335 183.508C138.908 171.682 128.056 159.828 128.056 159.828C128.056 159.828 119.831 171.686 120.522 185.498C121.209 199.309 128.273 210.094 128.273 210.094C128.273 210.094 117.883 197.598 110.332 194.305C102.782 191.013 90.0943 195.042 90.0943 195.042C90.0943 195.042 98.0655 210.348 106.132 214.806C114.195 219.264 123.178 220.354 123.178 220.354C123.178 220.354 111.144 217.474 102.861 220.429C94.5815 223.385 86.0442 231.681 86.0442 231.681C86.0442 231.681 102.232 237.958 114.137 235.323C126.038 232.692 134.887 228.263 134.887 228.263Z" fill="url(#paint14_linear_12_200)"/>
<path opacity="0.3" d="M128.056 159.832C128.056 159.832 138.908 171.686 141.335 183.512C143.761 195.338 139.025 207.621 139.025 207.621C139.025 207.621 144.91 193.698 149.41 187.708C153.91 181.714 167.25 176.003 167.25 176.003C167.25 176.003 167.192 192.062 164.382 199.921C161.577 207.78 149.389 217.686 149.21 218.46C149.031 219.239 158.892 211.576 167.796 212.009C176.699 212.437 188.675 220.225 188.675 220.225C188.675 220.225 178.356 228.438 164.77 232.601C151.183 236.763 134.887 228.267 134.887 228.267L134.45 228.48C135.828 198.326 128.056 159.832 128.056 159.832Z" fill="#00759F"/>
<path d="M119.498 219.693C121.717 220.021 123.17 220.363 123.17 220.363C123.17 220.363 121.729 220.184 119.498 219.693Z" fill="url(#paint15_linear_12_200)"/>
<path d="M162.335 184.615C162.335 184.615 152.981 212.146 135.894 223.776C138.821 220.046 145.635 214.111 150.954 204.841C156.274 195.567 162.335 184.615 162.335 184.615Z" fill="url(#paint16_linear_12_200)"/>
<path d="M135.953 225.05C135.953 225.05 162.655 224.251 173.407 222.253C181.336 220.975 185.066 220.246 185.066 220.246C185.066 220.246 178.552 223.252 161.644 225.22C144.735 227.189 135.953 225.05 135.953 225.05Z" fill="url(#paint17_linear_12_200)"/>
<path d="M133.472 224.446C133.472 224.446 123.394 213.99 114.02 207.147C104.651 200.299 93.9655 196.52 93.9655 196.52C93.9655 196.52 107.997 204.924 113.259 208.704C118.516 212.483 133.472 224.446 133.472 224.446Z" fill="url(#paint18_linear_12_200)"/>
<path d="M132.369 98.7845C132.369 98.7845 134.184 107.771 124.905 112.683C121.8 113.757 116.014 113.861 112.797 110.789C117.517 113.083 121.721 113.466 124.826 112.254C126.591 110.785 131.661 108.862 132.369 98.7845Z" fill="black"/>
<path d="M127.399 99.7127C127.399 99.7127 129.426 107.401 124.785 112.492C120.177 111.476 116.36 107.954 115.244 105.453C116.738 107.172 120.814 111.226 124.568 112.138C126.329 109.17 128.073 105.436 127.399 99.7127Z" fill="black"/>
<path d="M124.252 103.954C124.252 103.954 126.599 109.291 124.947 112.304C124.069 111.792 119.835 107.959 118.637 102.098C120.393 105.37 121.013 108.287 124.685 111.455C125.155 109.449 124.406 104.753 124.252 103.954Z" fill="black"/>
<path d="M132.481 100.737C132.481 100.737 133.83 99.9458 133.975 97.9228C134.125 95.8998 132.926 95.1756 132.298 96.0414C132.027 95.4295 131.753 95.7333 131.748 96.1288C131.37 95.7458 130.625 95.725 130.529 96.6075C130.433 97.4899 131.203 100.554 132.481 100.737Z" fill="url(#paint19_linear_12_200)"/>
<path d="M127.528 101.286C127.528 101.286 129.064 100.32 128.36 98.0602C127.923 96.8947 127.324 96.8073 127.186 97.1153C127.016 96.9779 126.3 96.8697 126.262 97.4858C125.904 97.2943 125.284 97.8063 125.455 98.5222C125.617 99.2382 126.013 100.936 127.528 101.286Z" fill="url(#paint20_linear_12_200)"/>
<path d="M124.685 105.798C124.685 105.798 125.904 104.987 125.193 103.047C124.739 101.731 124.098 102.173 124.089 102.452C123.844 102.081 123.428 102.152 123.382 102.481C123.024 102.31 122.578 102.822 122.745 103.534C122.911 104.246 123.444 105.703 124.685 105.798Z" fill="url(#paint21_linear_12_200)"/>
<path d="M119.328 103.921C119.328 103.921 120.501 103.359 120.181 101.548C119.86 99.7377 118.861 98.593 118.495 99.3214C118.133 99.0467 117.521 98.518 116.967 99.5628C116.306 99.7168 116.414 100.745 116.705 101.498C116.992 102.248 118.066 103.975 119.328 103.921Z" fill="url(#paint22_linear_12_200)"/>
<path d="M114.953 112.067C114.953 112.067 115.302 110.81 113.729 109.861C112.156 108.912 110.636 108.908 110.94 109.665C110.495 109.757 109.696 109.869 110.116 110.976C109.795 111.576 110.64 112.171 111.402 112.446C112.16 112.72 114.166 113.049 114.953 112.067Z" fill="url(#paint23_linear_12_200)"/>
<path d="M116.256 106.668C116.256 106.668 116.822 106.094 116.118 104.853C115.66 103.925 114.237 102.36 114.012 103.563C113.35 103.575 112.593 103.401 112.909 104.745C112.305 105.095 112.842 105.732 113.454 106.352C114.07 106.968 115.66 107.18 116.256 106.668Z" fill="url(#paint24_linear_12_200)"/>
<path d="M125.205 111.73C125.205 111.73 125.23 111.776 125.28 111.871C126.096 113.441 133.376 127.735 130.454 132.164C130.741 129.907 130.387 127.085 128.389 121.395C126.391 115.705 124.572 112.134 124.572 112.134L125.234 111.78M196.642 101.885C196.642 101.885 194.827 110.872 204.105 115.784C207.21 116.858 212.996 116.962 216.214 113.89C211.494 116.184 207.29 116.567 204.184 115.355C202.419 113.886 197.349 111.963 196.642 101.885Z" fill="black"/>
<path d="M201.612 102.814C201.612 102.814 199.585 110.502 204.226 115.593C208.834 114.577 212.651 111.056 213.766 108.554C212.272 110.273 208.197 114.327 204.442 115.239C202.682 112.275 200.942 108.537 201.612 102.814Z" fill="black"/>
<path d="M204.759 107.055C204.759 107.055 202.411 112.392 204.064 115.405C204.942 114.893 209.175 111.06 210.374 105.199C208.617 108.471 207.997 111.388 204.326 114.556C203.855 112.55 204.605 107.855 204.759 107.055Z" fill="black"/>
<path d="M196.529 103.838C196.529 103.838 195.181 103.047 195.035 101.024C194.885 99.0009 196.084 98.2766 196.713 99.1424C196.983 98.5305 197.258 98.8344 197.262 99.2298C197.641 98.8469 198.386 98.8261 198.482 99.7085C198.577 100.591 197.807 103.655 196.529 103.838Z" fill="url(#paint25_linear_12_200)"/>
<path d="M201.483 104.387C201.483 104.387 199.947 103.421 200.65 101.161C201.087 99.9957 201.687 99.9083 201.824 100.216C201.995 100.079 202.711 99.9708 202.748 100.587C203.106 100.395 203.726 100.907 203.556 101.623C203.393 102.343 202.998 104.042 201.483 104.387Z" fill="url(#paint26_linear_12_200)"/>
<path d="M204.326 108.899C204.326 108.899 203.106 108.088 203.818 106.152C204.272 104.837 204.913 105.278 204.921 105.557C205.167 105.186 205.583 105.257 205.629 105.586C205.987 105.415 206.432 105.927 206.266 106.639C206.099 107.347 205.57 108.804 204.326 108.899Z" fill="url(#paint27_linear_12_200)"/>
<path d="M209.687 107.022C209.687 107.022 208.513 106.46 208.834 104.649C209.154 102.839 210.149 101.694 210.52 102.422C210.882 102.148 211.494 101.619 212.047 102.664C212.709 102.818 212.601 103.846 212.31 104.599C212.018 105.349 210.944 107.076 209.687 107.022Z" fill="url(#paint28_linear_12_200)"/>
<path d="M214.058 115.168C214.058 115.168 213.708 113.911 215.282 112.962C216.855 112.013 218.374 112.009 218.07 112.766C218.516 112.858 219.315 112.97 218.895 114.077C219.215 114.677 218.37 115.272 217.608 115.547C216.851 115.822 214.844 116.15 214.058 115.168Z" fill="url(#paint29_linear_12_200)"/>
<path d="M212.755 109.769C212.755 109.769 212.189 109.195 212.892 107.954C213.35 107.026 214.774 105.461 214.998 106.664C215.66 106.677 216.418 106.502 216.102 107.846C216.705 108.196 216.168 108.833 215.556 109.453C214.94 110.073 213.354 110.281 212.755 109.769Z" fill="url(#paint30_linear_12_200)"/>
<path d="M203.806 114.835C203.806 114.835 203.781 114.881 203.731 114.977C202.915 116.546 195.635 130.84 198.557 135.269C198.269 133.013 198.623 130.191 200.621 124.5C202.619 118.81 204.438 115.239 204.438 115.239L203.776 114.885" fill="black"/>
<path d="M163.121 99.363L149.169 123.435C149.169 123.435 166.264 138.436 169.402 137.042C172.541 135.648 187.892 129.716 187.892 129.716C187.892 129.716 188.242 120.996 187.193 118.203C186.148 115.414 173.24 95.1797 172.191 95.8749C171.142 96.5742 163.121 99.363 163.121 99.363Z" fill="url(#paint31_linear_12_200)"/>
<path d="M109.504 207.721C110.203 208.187 115.669 215.63 123.228 220.862C130.787 226.095 141.018 231.21 141.018 231.21L197.999 232.138C197.999 232.138 210.79 226.673 218.699 219.93C226.608 213.187 228.352 208.067 228.352 208.067L181.141 211.671L180.674 211.205L156.952 211.438" fill="black"/>
<path d="M109.504 207.721C110.203 208.187 115.669 215.63 123.228 220.862C130.787 226.095 141.018 231.21 141.018 231.21L197.999 232.138C197.999 232.138 210.79 226.673 218.699 219.93C226.608 213.187 228.352 208.067 228.352 208.067L181.141 211.671L180.674 211.205L156.952 211.438" stroke="#231F20" stroke-width="2" stroke-miterlimit="10"/>
<path d="M152.648 83.4873C152.648 83.4873 154.122 93.8769 157.918 98.4515C161.714 103.026 165.594 105.815 168.541 105.815C171.488 105.815 177.378 102.327 180.013 97.211C182.648 92.0953 183.813 83.6454 183.813 83.6454C183.813 83.6454 189.936 68.8394 176.683 67.2119C163.425 65.5844 155.983 63.0244 154.975 66.0506C153.968 69.0684 152.648 83.4873 152.648 83.4873Z" fill="url(#paint32_linear_12_200)"/>
<path d="M177.457 71.0039C177.586 70.7958 183.738 80.7733 183.039 86.2761C182.339 91.779 180.404 97.2069 179.084 98.9135C177.765 100.62 174.202 103.563 174.202 103.563C174.202 103.563 173.89 111.393 176.916 115.426C179.942 119.46 185.599 122.015 188.159 122.248C190.719 122.482 193.041 122.79 192.808 122.79C192.575 122.79 189.166 112.246 190.481 104.803C191.801 97.3609 190.173 76.3527 187.301 68.5231C184.433 60.6934 182.573 60.0732 182.573 60.0732C182.573 60.0732 174.743 52.7097 158.851 57.9045C149.676 60.9015 147.608 71.237 147.687 82.4799C147.766 93.7229 148.927 102.714 145.826 111.476C142.725 120.238 143.345 122.873 143.345 122.873C143.345 122.873 155.129 122.64 158.617 119.072C162.106 115.505 162.959 112.949 163.192 110.081C163.425 107.214 163.658 103.958 163.658 103.958C163.658 103.958 157.764 100.624 155.595 94.1891C153.427 87.7538 153.269 87.2127 153.269 87.2127C153.269 87.2127 157.764 85.119 163.113 79.9242C168.462 74.7294 169.003 73.643 169.003 73.643L165.361 79.3789C165.361 79.3789 172.416 78.9918 177.457 71.0039Z" fill="black"/>
<path d="M149.393 122.365C149.393 122.365 140.556 122.365 138.346 125.387C136.136 128.409 123.228 164.577 123.811 166.9C124.393 169.222 144.278 195.275 144.278 195.275C144.278 195.275 144.86 181.206 144.744 180.507C144.627 179.808 134.046 164.111 134.046 163.761C134.046 163.411 144.165 145.038 144.165 145.038L149.393 122.365Z" fill="url(#paint33_linear_12_200)"/>
<path d="M188.117 122.365C188.117 122.365 196.954 122.365 199.164 125.387C201.375 128.409 214.283 164.577 213.7 166.9C213.117 169.222 193.233 195.275 193.233 195.275C193.233 195.275 192.65 181.206 192.767 180.507C192.883 179.808 203.464 164.111 203.464 163.761C203.464 163.411 193.345 145.038 193.345 145.038L188.117 122.365Z" fill="url(#paint34_linear_12_200)"/>
<path d="M187.068 121.899C187.068 121.899 181.836 129.458 169.74 130.041C157.648 130.623 151.366 122.132 151.366 122.132L149.389 122.365C149.389 122.365 144.507 132.83 144.04 139.922C143.574 147.015 144.856 150.27 146.6 153.646C148.344 157.022 149.855 157.367 149.855 157.367L150.555 205.045C150.555 205.045 182.881 208.533 182.768 208.183C182.652 207.834 189.278 157.713 189.278 157.251C189.278 156.785 193.116 148.993 193.349 143.298C193.582 137.604 189.628 122.598 189.628 122.598L187.068 121.899Z" fill="url(#paint35_linear_12_200)"/>
<path d="M136.485 212.371C136.485 212.371 131.253 164.577 131.37 164.111C131.486 163.645 130.903 161.784 137.418 161.9C143.928 162.017 203.935 161.9 203.935 161.9C203.935 161.9 207.539 161.201 207.19 165.971C206.84 170.737 204.63 210.394 204.63 210.394L136.485 212.371Z" fill="url(#paint36_linear_12_200)"/>
<path opacity="0.3" d="M168.462 189.348C171.223 189.348 173.461 187.11 173.461 184.349C173.461 181.588 171.223 179.35 168.462 179.35C165.701 179.35 163.463 181.588 163.463 184.349C163.463 187.11 165.701 189.348 168.462 189.348Z" fill="white"/>
<path d="M177.844 220.629C177.628 219.88 163.075 213.42 159.005 210.048C154.934 206.676 143.075 199.929 133.422 196.441C123.769 192.953 115.398 188.882 113.421 188.299C111.444 187.716 107.723 187.254 104.118 192.02C100.513 196.786 100.863 200.741 104.001 203.883C107.14 207.022 119.353 217.724 130.4 220.862C141.447 224.001 149.356 225.628 157.96 228.072C166.564 230.515 171.912 232.259 171.912 232.259C171.912 232.259 179.938 227.839 177.844 220.629Z" fill="url(#paint37_linear_12_200)"/>
<path d="M173.115 231.676C173.115 231.676 177.07 232.026 178.348 232.954C179.626 233.883 182.069 235.281 183.347 235.281C184.625 235.281 189.162 235.98 192.3 237.375C195.439 238.769 202.419 242.724 204.047 242.024L205.674 241.325C205.674 241.325 206.836 241.325 207.535 240.742C208.234 240.16 208.351 239.581 208.351 239.581C208.351 239.581 209.629 239.581 210.212 238.998C210.794 238.415 210.794 237.371 210.794 237.371C210.794 237.371 211.839 237.487 212.189 236.788L212.538 236.089C212.538 236.089 213.816 235.273 214.283 234.345C214.749 233.416 214.749 233.3 214.516 232.95C214.283 232.6 209.633 229.462 208.584 229.462C207.539 229.462 202.419 228.879 199.631 228.068C196.842 227.252 194.981 227.023 189.628 226.323C184.279 225.628 173.115 231.676 173.115 231.676Z" fill="url(#paint38_linear_12_200)"/>
<path d="M162.651 221.095C162.867 220.346 177.419 213.886 181.49 210.514C185.561 207.143 197.42 200.395 207.073 196.907C216.726 193.419 225.097 189.348 227.074 188.765C229.051 188.182 232.772 187.72 236.377 192.486C239.982 197.253 239.632 201.207 236.494 204.35C233.355 207.488 221.142 218.19 210.095 221.328C199.048 224.467 191.139 226.095 182.535 228.538C173.931 230.981 168.582 232.725 168.582 232.725C168.582 232.725 160.557 228.305 162.651 221.095Z" fill="url(#paint39_linear_12_200)"/>
<path d="M162.493 221.79C162.493 221.79 149.622 228.147 147.375 228.147C145.127 228.147 144.581 227.372 143.499 226.906C142.413 226.44 140.319 226.673 137.297 228.068C134.275 229.462 132.102 230.702 130.088 230.548C128.073 230.394 123.965 229.154 121.638 230.315C119.311 231.477 114.969 235.664 116.522 237.292C118.075 238.919 122.104 240.705 123.811 239.773C125.517 238.844 130.246 238.611 134.121 238.998C137.996 239.385 142.338 240.626 145.364 239.539C148.39 238.453 153.735 235.352 158.309 234.191C162.884 233.029 167.533 232.176 167.533 232.176C167.533 232.176 161.485 229.158 162.493 221.79Z" fill="url(#paint40_linear_12_200)"/>
<path d="M207.206 165.28C207.169 161.28 203.93 161.9 203.93 161.9C203.93 161.9 143.928 162.017 137.414 161.9C130.903 161.784 131.482 163.645 131.366 164.111C131.357 164.148 131.378 164.469 131.428 165.026C131.969 164.252 132.631 162.949 136.39 162.949H203.527C203.527 162.949 205.895 162.833 207.206 165.28Z" fill="white"/>
<path d="M249.268 239.098L233.426 166.475L231.582 166.737L232.647 171.628C232.926 171.936 225.559 171.628 225.559 171.628L224.439 166.488L222.541 166.504L238.462 239.489C238.488 239.609 238.537 239.722 238.607 239.823C238.677 239.923 238.766 240.009 238.868 240.075C238.971 240.141 239.086 240.186 239.206 240.208C239.327 240.23 239.45 240.227 239.57 240.201C239.811 240.148 240.021 240.002 240.154 239.795C240.288 239.587 240.333 239.335 240.281 239.094L239.116 233.745H246.205L247.458 239.489C247.566 239.993 248.061 240.309 248.565 240.201C249.069 240.093 249.377 239.602 249.268 239.098ZM225.904 173.218H232.993L234.113 178.359H227.024L225.904 173.218ZM227.374 179.945H234.462L235.586 185.086H228.497L227.374 179.945ZM228.839 186.671H235.928L237.047 191.812H229.958L228.839 186.671ZM230.308 193.394H237.397L238.517 198.535H231.428L230.308 193.394ZM231.773 200.121H238.862L239.982 205.261H232.893L231.773 200.121ZM233.243 206.847H240.331L241.451 211.988H234.362L233.243 206.847ZM234.708 213.574H241.797L242.916 218.714H235.828L234.708 213.574ZM236.177 220.3H243.266L244.386 225.441H237.297L236.177 220.3ZM238.766 232.168L237.647 227.027H244.735L245.855 232.168H238.766Z" fill="black"/>
<path d="M239.058 172.773C239.07 172.798 239.228 175.936 237.401 175.633C236.373 175.462 235.911 171.27 234.029 168.406C233.588 167.736 231.998 163.207 231.661 162.512C231.12 161.388 232.951 161.168 233.363 161.638C233.688 162.009 234.558 163.79 236.023 166.234C237.684 168.985 238.737 171.97 239.058 172.773Z" fill="url(#paint41_linear_12_200)"/>
<path d="M239.832 207.367C239.004 206.972 237.114 206.435 236.806 205.39C236.797 205.361 236.797 205.336 236.789 205.307C236.552 204.341 237.285 204.196 238.117 204.37C238.97 204.549 241.48 205.011 241.48 205.011C241.48 205.011 241.922 206.052 241.922 206.668C241.922 207.292 240.648 207.759 239.832 207.367Z" fill="black"/>
<path d="M241.401 204.47L241.468 204.928C241.493 205.107 241.405 205.286 241.243 205.369C240.96 205.507 240.473 205.673 239.869 205.573C239.686 205.54 239.541 205.394 239.511 205.211L239.428 204.633L241.401 204.47Z" fill="white"/>
<path d="M238.059 214.281C237.122 213.836 234.974 213.224 234.629 212.038C234.616 212.004 234.62 211.975 234.612 211.946C234.346 210.851 235.174 210.685 236.119 210.881C237.089 211.085 239.936 211.609 239.936 211.609C239.936 211.609 240.448 212.804 240.448 213.694C240.444 214.585 238.983 214.723 238.059 214.281Z" fill="black"/>
<path d="M239.84 210.993L239.915 211.509C240.136 212.25 238.787 212.354 238.105 212.238C237.896 212.2 237.73 212.038 237.701 211.825L237.605 211.168L239.84 210.993Z" fill="white"/>
<path d="M241.942 187.158C241.942 187.158 242.446 188.757 242.583 190.701C242.754 193.14 240.502 195.729 240.71 197.323C241.085 200.191 241.892 203.188 241.976 204.046C242.059 204.907 238.991 205.399 238.766 204.47C238.542 203.542 236.331 198.759 236.094 197.398C235.682 195.055 238.579 193.977 238.579 193.977C238.579 193.977 238.288 200.603 238.646 202.568C238.85 203.684 240.148 209.981 240.29 210.814C240.327 211.043 239.911 211.688 239.091 211.834C238.221 211.988 237.201 211.755 237.064 211.405C236.71 210.489 235.457 203.679 235.262 202.618C235.062 201.557 234.483 191.492 234.312 190.747C234.138 189.997 241.601 186.401 241.942 187.158Z" fill="url(#paint42_linear_12_200)"/>
<path d="M232.302 176.215C232.285 179.129 234.104 191.038 234.475 191.167C236.798 191.966 242.438 188.578 242.363 187.662C241.867 181.664 239.911 172.798 238.729 172.506C236.244 171.886 232.31 174.788 232.302 176.215Z" fill="url(#paint43_linear_12_200)"/>
<path d="M236.668 154.187C236.668 158.133 233.472 161.334 229.521 161.334C225.575 161.334 222.379 158.133 222.379 154.187C222.379 150.241 225.575 147.044 229.521 147.044C233.467 147.044 236.668 150.241 236.668 154.187Z" fill="url(#paint44_linear_12_200)"/>
<path d="M227.39 187.054C227.036 187.279 226.837 187.521 226.587 187.895C226.212 188.432 227.003 190.056 227.498 189.598C227.399 189.09 228.139 188.844 228.406 188.715C229.284 188.299 229.372 187.87 229.313 187.537C229.151 186.626 228.489 186.355 227.39 187.054Z" fill="#F4A477"/>
<path d="M231.973 183.337C231.902 184.37 229.047 185.789 228.614 186.434C228.219 187.025 228.56 187.895 229.667 187.816C230.229 187.758 234.916 185.21 235.02 184.249C235.207 182.505 235.249 174.917 233.097 175.125C231.257 175.3 232.048 182.305 231.973 183.337Z" fill="url(#paint45_linear_12_200)"/>
<path d="M236.619 168.165C236.327 166.179 234.72 165.38 232.672 166.267C230.225 167.332 231.22 169.264 231.374 170.109C231.569 171.199 232.036 173.347 232.643 173.514C233.08 173.635 233.393 173.435 233.85 173.281C234.009 173.868 233.988 174.188 234.084 174.267C234.529 174.638 236.677 173.655 236.594 172.944C236.556 172.619 236.494 172.082 236.456 171.549C236.298 170.151 236.86 169.788 236.619 168.165Z" fill="#F4A477"/>
<path d="M233.742 169.722C233.368 169.568 232.993 169.78 232.835 170.55C232.822 170.608 232.448 170.754 232.456 170.642C232.718 168.019 231.511 168.76 231.245 168.331C231.232 167.17 231.665 166.279 232.943 165.888C235.02 165.251 237.047 166.167 237.339 168.157C237.538 169.518 236.602 170.45 236.652 171.811C236.66 171.999 236.531 171.945 236.136 172.04C235.828 172.115 235.47 172.457 235.153 172.398C234.758 172.323 233.888 171.524 233.992 171C234.092 170.521 234.125 169.88 233.742 169.722Z" fill="#0078A2"/>
<path d="M239.249 204.712C239.249 204.712 238.437 199.584 238.517 198.48C238.596 197.377 238.9 191.554 238.9 191.554L239.682 190.855C239.682 190.855 238.908 197.344 239.008 199.259C239.108 201.174 239.249 204.712 239.249 204.712Z" fill="url(#paint46_linear_12_200)"/>
<path d="M231.494 161.875C231.311 161.551 231.499 160.36 231.786 159.624C232.094 158.829 232.643 157.238 233.08 157.438C233.355 157.563 232.98 158.774 232.98 160.065C232.98 160.885 232.76 161.68 232.622 162.046C232.523 162.321 231.744 162.358 231.494 161.875Z" fill="#F4A477"/>
<path d="M127.727 144.813C127.727 139.931 123.769 135.972 118.886 135.972C114.004 135.972 110.045 139.931 110.045 144.813C110.045 149.696 114.004 153.655 118.886 153.655C123.769 153.659 127.727 149.7 127.727 144.813Z" fill="url(#paint47_linear_12_200)"/>
<path d="M113.479 188.087C113.479 188.087 113.454 188.515 113.442 188.878C113.438 188.973 113.438 189.065 113.438 189.144C113.438 189.256 114.012 189.348 114.482 189.219C114.853 189.119 115.173 188.832 115.024 188.661C114.865 188.486 114.703 187.87 114.703 187.87L113.479 188.087Z" fill="white"/>
<path d="M113.446 188.878C113.446 188.878 114.308 189.252 115.028 188.661C115.415 188.645 118.703 189.365 118.374 189.889C118.041 190.422 113.783 190.638 113.408 190.355C113.263 190.247 113.296 189.24 113.446 188.878Z" fill="black"/>
<path d="M106.594 187.183C106.594 187.183 106.52 187.604 106.47 187.962C106.457 188.058 106.445 188.145 106.436 188.228C106.424 188.341 106.986 188.495 107.469 188.42C107.847 188.361 108.201 188.112 108.068 187.924C107.931 187.733 107.835 187.104 107.835 187.104L106.594 187.183Z" fill="#EBBEAF"/>
<path d="M112.401 170.171L109.525 169.002C109.321 171.965 109.608 174.317 108.771 178.788C108.418 180.669 106.694 185.048 106.024 187.192C106.22 187.65 108.16 187.704 108.426 187.225C108.771 186.492 111.032 182.326 111.652 179.662C111.935 178.43 112.414 173.152 112.401 170.171ZM106.47 187.966C106.47 187.966 107.281 188.436 108.064 187.929C108.451 187.954 111.644 188.59 111.29 189.29C111.148 189.569 106.611 189.756 106.27 189.435C106.141 189.306 106.286 188.311 106.47 187.966Z" fill="black"/>
<path d="M110.62 156.577C110.62 156.577 110.874 155.723 110.807 155.303C110.74 154.882 109.795 154.308 109.646 153.43C109.496 152.551 110.004 151.373 111.319 151.282C113.304 151.14 113.242 152.693 113.313 153.23C113.429 154.1 113.338 155.486 113.138 155.582C113.08 155.611 112.834 155.64 112.405 155.494C112.33 155.711 112.139 156.722 112.285 157.034C112.43 157.347 110.62 156.577 110.62 156.577Z" fill="white"/>
<path d="M109.625 167.104C109.525 167.753 109.458 168.469 109.521 169.006C109.837 171.582 111.748 174.813 112.397 179.112C112.684 181.006 112.826 186.155 112.909 188.157C113.155 188.595 115.086 188.428 115.298 187.929C115.086 186.988 116.06 180.677 115.785 177.477C115.669 176.107 113.667 166.575 113.667 166.575C113.667 166.575 110.957 166.338 109.625 167.104Z" fill="black"/>
<path d="M112.468 156.693C112.468 156.693 111.236 155.894 110.232 156.052C110.091 156.144 110.045 156.581 109.854 157.109C109.646 157.688 109.296 158.391 109.213 159.186C109.071 160.581 109.338 164.365 109.075 167.882C109.487 168.544 112.672 169.564 114.353 168.069C114.353 168.069 113.916 165.909 113.816 164.161C113.712 162.35 114.94 162.159 114.707 160.731C114.557 159.815 112.884 158.729 112.43 157.351C112.372 157.168 112.501 156.897 112.468 156.693Z" fill="url(#paint48_linear_12_200)"/>
<path d="M113.188 151.465C113.841 152.951 111.831 152.872 111.311 155.553C110.973 157.284 109.146 157.875 109.213 160.489C108.064 160.265 107.573 158.383 108.792 156.239C109.575 154.866 108.938 153.459 109.159 152.364C109.6 150.187 112.572 150.071 113.188 151.465Z" fill="url(#paint49_linear_12_200)"/>
<path d="M110.586 159.145C110.707 158.196 111.619 158.237 113.238 157.971C113.995 157.846 115.39 157.563 116.464 157.193C116.901 157.043 117.538 152.68 117.6 151.507C117.625 150.999 117.259 150.886 117.034 150.462C116.813 150.041 116.68 149.326 116.905 149.255C117.071 149.201 117.205 149.846 117.33 149.875C117.284 149.375 117.142 148.614 117.338 148.114C117.534 147.615 118.258 147.935 118.428 148.098C118.637 148.293 118.699 148.605 118.736 149.055C118.786 149.592 118.982 150.308 118.811 150.67C118.666 150.986 118.528 151.415 118.533 151.64C118.537 151.865 118.474 158.158 117.916 158.529C117.159 159.032 115.053 159.69 113.109 160.027C111.569 160.29 110.491 159.89 110.586 159.145Z" fill="white"/>
<path d="M240.784 199C240.784 191.267 247.051 185 254.784 185C262.516 185 268.784 191.267 268.784 199C268.784 206.733 262.516 213 254.784 213C247.051 212.995 240.784 206.727 240.784 199Z" fill="url(#paint50_linear_12_200)"/>
<path d="M246.961 197.998V197.364H249.948V197.998H248.834V201H248.074V197.998H246.961ZM250.439 201V197.364H252.89V197.998H251.208V198.864H252.764V199.498H251.208V200.366H252.897V201H250.439ZM253.501 201V197.364H255.951V197.998H254.27V198.864H255.825V199.498H254.27V200.366H255.958V201H253.501ZM259.604 197.364V201H258.94L257.358 198.711H257.331V201H256.563V197.364H257.237L258.807 199.651H258.839V197.364H259.604ZM262.212 198.409C262.198 198.266 262.137 198.155 262.029 198.076C261.921 197.996 261.775 197.957 261.59 197.957C261.465 197.957 261.359 197.974 261.273 198.01C261.186 198.044 261.12 198.092 261.074 198.154C261.029 198.215 261.006 198.285 261.006 198.363C261.004 198.428 261.018 198.485 261.047 198.534C261.078 198.582 261.12 198.624 261.173 198.66C261.226 198.694 261.288 198.724 261.358 198.75C261.428 198.775 261.502 198.797 261.582 198.814L261.908 198.892C262.067 198.928 262.213 198.975 262.345 199.034C262.478 199.094 262.592 199.166 262.69 199.253C262.787 199.339 262.862 199.441 262.915 199.558C262.97 199.675 262.997 199.81 262.999 199.961C262.997 200.184 262.941 200.377 262.828 200.54C262.717 200.702 262.556 200.828 262.345 200.918C262.136 201.007 261.883 201.051 261.587 201.051C261.293 201.051 261.038 201.007 260.82 200.917C260.603 200.827 260.434 200.693 260.312 200.517C260.191 200.339 260.128 200.12 260.122 199.858H260.866C260.874 199.98 260.909 200.082 260.971 200.164C261.034 200.244 261.117 200.305 261.221 200.347C261.327 200.387 261.445 200.407 261.578 200.407C261.708 200.407 261.821 200.388 261.917 200.35C262.014 200.312 262.089 200.26 262.143 200.192C262.196 200.125 262.223 200.047 262.223 199.96C262.223 199.878 262.198 199.809 262.15 199.754C262.102 199.698 262.033 199.651 261.94 199.612C261.849 199.572 261.737 199.537 261.605 199.505L261.209 199.406C260.902 199.331 260.66 199.214 260.483 199.056C260.305 198.897 260.217 198.683 260.218 198.415C260.217 198.195 260.275 198.002 260.394 197.838C260.513 197.673 260.677 197.545 260.886 197.452C261.094 197.36 261.331 197.314 261.596 197.314C261.866 197.314 262.101 197.36 262.302 197.452C262.505 197.545 262.662 197.673 262.775 197.838C262.887 198.002 262.945 198.193 262.949 198.409H262.212Z" fill="#731BA3"/>
<path d="M269.024 187.791L270.077 188.187C270.418 188.316 270.689 188.586 270.818 188.928L271.321 190.276C271.509 190.78 271.542 191.329 271.417 191.85C271.246 192.561 270.905 193.215 270.43 193.769C272.612 194.072 274.368 194.118 276.508 193.752C275.942 191.983 275.509 190.443 274.277 189.044L273.81 188.49C273.973 188.461 274.381 184.761 273.881 183.908C272.907 182.243 270.93 182.592 270.364 182.983C269.544 183.645 269.731 184.42 269.419 184.732C269.073 185.081 268.786 185.094 268.77 185.235C268.753 185.377 268.94 185.506 268.999 185.598C268.928 186.297 268.641 186.855 268.653 187.288C268.661 187.467 268.849 187.725 269.024 187.791Z" fill="white"/>
<path opacity="0.35" d="M270.818 188.928L271.051 189.552C270.851 188.532 271.617 188.058 271.617 188.058C271.613 188.058 271.23 188.195 270.609 188.157C270.31 188.141 269.869 188.041 269.652 187.983C269.436 187.92 269.123 187.829 269.123 187.829L270.077 188.187C270.418 188.312 270.689 188.582 270.818 188.928Z" fill="#F58F9E"/>
<path d="M285.611 229.017C285.611 229.017 286.032 229.549 286.926 230.115C287.801 230.665 288.675 231.206 288.546 231.464C288.417 231.722 286.331 234.769 285.112 235.473C283.892 236.18 284.937 234.852 285.003 234.532C285.07 234.211 285.69 232.684 285.178 231.976C284.666 231.273 284.054 230.852 284.217 230.532C284.375 230.211 285.178 228.8 285.611 229.017Z" fill="white"/>
<path d="M276.678 209.449C276.678 209.449 276.483 218.023 277.511 219.564C278.539 221.104 284.845 226.536 286.215 229.27C286.215 229.27 285.361 231.323 283.821 231.239C283.821 231.239 280.287 227.089 277.686 225.537C275.467 224.213 274.156 223.073 273.686 221.915C273.215 220.758 269.706 209.852 269.706 209.852L276.678 209.449ZM287.318 230.361C287.318 230.361 287.584 231.077 286.797 231.556C286.131 231.959 285.07 231.88 285.124 232.559C285.182 233.304 284.978 234.569 284.379 235.302C283.942 235.839 282.681 236.855 282.964 237.104C283.168 237.287 285.212 237.625 287.443 235.435C289.786 233.133 289.857 231.934 289.753 231.689C289.607 231.377 288.521 230.528 287.318 230.361Z" fill="black"/>
<path d="M268.274 233.1C268.274 233.1 268.308 234.898 268.145 235.344C267.983 235.793 264.266 235.727 263.429 235.023C262.597 234.315 265.419 234.157 265.964 233.608C266.21 233.362 266.484 232.68 266.484 232.68L268.274 233.1Z" fill="white"/>
<path d="M276.42 204.466C276.42 204.466 277.386 206.964 277.245 208.77C276.974 212.258 272.487 219.734 271.971 221.274C271.459 222.814 272.528 225.208 271.5 227.689C270.472 230.17 268.678 233.333 268.636 233.504C268.595 233.674 266.464 233.895 266.002 232.804C266.455 231.331 267.271 228.55 267.571 226.024C267.871 223.501 268.374 220.23 268.462 218.648C268.549 217.066 270.568 204.716 270.568 204.716C270.568 204.716 271.417 204.849 276.42 204.466ZM268.262 234.265C268.262 234.265 268.016 235.344 266.946 235.065C265.877 234.786 266.305 234.099 265.943 233.82C265.719 233.645 265.186 233.754 264.012 234.016C262.522 234.349 260.141 234.503 260.137 235.344C260.137 235.752 261.956 236.73 264.128 236.967C266.301 237.204 268.42 236.755 268.653 236.626C268.895 236.497 268.716 234.94 268.262 234.265Z" fill="black"/>
<path d="M271.188 191.812C271.492 190.655 272.957 189.756 274.256 190.043C275.317 190.276 276.591 192.362 276.803 193.989C277.016 195.613 276.004 202.776 277.124 205.407C277.124 205.407 271.429 207.213 269.207 206.46C269.207 206.46 269.902 203.933 270.118 202.031C270.522 198.472 269.036 198.068 269.082 196.116C269.115 194.888 270.951 192.711 271.188 191.812Z" fill="url(#paint51_linear_12_200)"/>
<path d="M273.969 192.591C274.814 192.428 275.534 193.182 275.85 195.4C276.25 198.185 276.678 202.223 276.437 203.492C276.3 204.2 271.95 203.292 268.07 201.965C267.475 201.761 266.659 202.456 266.106 202.41C265.028 202.318 263.346 201.815 263.608 201.232C263.762 200.886 264.874 200.691 264.815 200.645L263.454 200.133C263.487 199.8 264.224 199.904 264.965 199.767C266.056 199.571 267.009 199.771 268.079 200.175C268.84 200.462 272.462 201.232 273.865 200.974C273.64 199.409 273.34 197.481 273.182 196.482C272.82 194.168 272.616 192.853 273.969 192.591Z" fill="white"/>
<path d="M272.853 196.699C273.756 196.499 274.664 196.428 275.592 196.366C275.804 196.353 276.012 196.337 276.225 196.324C276.187 195.983 276.146 195.65 276.1 195.338C275.783 193.119 274.759 191.837 273.898 192.116C272.603 192.536 272.458 194.176 272.816 196.487C272.828 196.553 272.841 196.624 272.853 196.699Z" fill="url(#paint52_linear_12_200)"/>
<path d="M273.548 182.051C271.825 181.418 270.564 182.538 270.368 182.979C271.679 183.142 270.743 184.499 271.704 185.227C272.595 185.901 272.175 186.909 272.354 188.669C272.645 191.508 276.071 190.942 276.708 193.485C277.99 190.185 274.83 188.632 275.184 186.459C275.546 184.228 274.976 182.576 273.548 182.051Z" fill="black"/>
<path d="M108.784 213C120.934 213 130.784 203.15 130.784 191C130.784 178.85 120.934 169 108.784 169C96.6333 169 86.7836 178.85 86.7836 191C86.7836 203.15 96.6333 213 108.784 213Z" fill="url(#paint53_linear_12_200)"/>
<path d="M92.0996 194V190.364H93.5343C93.8101 190.364 94.0451 190.416 94.2392 190.522C94.4333 190.626 94.5813 190.771 94.6831 190.957C94.7861 191.141 94.8375 191.354 94.8375 191.596C94.8375 191.837 94.7855 192.05 94.6813 192.235C94.5771 192.42 94.4262 192.564 94.2285 192.667C94.032 192.77 93.7941 192.821 93.5147 192.821H92.6003V192.205H93.3905C93.5384 192.205 93.6603 192.179 93.7562 192.129C93.8533 192.076 93.9255 192.005 93.9728 191.914C94.0214 191.821 94.0456 191.715 94.0456 191.596C94.0456 191.475 94.0214 191.37 93.9728 191.28C93.9255 191.189 93.8533 191.118 93.7562 191.069C93.6592 191.018 93.5361 190.992 93.3869 190.992H92.8684V194H92.0996ZM97.3096 191.409C97.2954 191.266 97.2344 191.155 97.1267 191.076C97.019 190.996 96.8728 190.957 96.6881 190.957C96.5627 190.957 96.4567 190.974 96.3703 191.01C96.2839 191.044 96.2176 191.092 96.1714 191.154C96.1265 191.215 96.104 191.285 96.104 191.363C96.1016 191.428 96.1152 191.485 96.1448 191.534C96.1756 191.582 96.2176 191.624 96.2709 191.66C96.3241 191.694 96.3857 191.724 96.4555 191.75C96.5254 191.775 96.5999 191.797 96.6793 191.814L97.006 191.892C97.1646 191.928 97.3102 191.975 97.4427 192.034C97.5753 192.094 97.6901 192.166 97.7872 192.253C97.8843 192.339 97.9594 192.441 98.0127 192.558C98.0672 192.675 98.095 192.81 98.0962 192.961C98.095 193.184 98.0382 193.377 97.9257 193.54C97.8144 193.702 97.6534 193.828 97.4427 193.918C97.2332 194.007 96.9805 194.051 96.6846 194.051C96.391 194.051 96.1353 194.007 95.9175 193.917C95.7009 193.827 95.5316 193.693 95.4097 193.517C95.289 193.339 95.2257 193.12 95.2197 192.858H95.9637C95.972 192.98 96.0069 193.082 96.0685 193.164C96.1312 193.244 96.2146 193.305 96.3188 193.347C96.4242 193.387 96.5431 193.407 96.6757 193.407C96.8059 193.407 96.919 193.388 97.0148 193.35C97.1119 193.312 97.1871 193.26 97.2403 193.192C97.2936 193.125 97.3202 193.047 97.3202 192.96C97.3202 192.878 97.296 192.809 97.2474 192.754C97.2001 192.698 97.1302 192.651 97.0379 192.612C96.9468 192.572 96.8349 192.537 96.7023 192.505L96.3064 192.406C95.9998 192.331 95.7577 192.214 95.5802 192.056C95.4026 191.897 95.3144 191.683 95.3156 191.415C95.3144 191.195 95.373 191.002 95.4914 190.838C95.611 190.673 95.7749 190.545 95.9832 190.452C96.1916 190.36 96.4283 190.314 96.6935 190.314C96.9633 190.314 97.1989 190.36 97.4001 190.452C97.6026 190.545 97.76 190.673 97.8724 190.838C97.9849 191.002 98.0429 191.193 98.0464 191.409H97.3096ZM98.4002 190.364H99.2614L100.091 191.93H100.126L100.955 190.364H101.816L100.49 192.714V194H99.7266V192.714L98.4002 190.364ZM105.225 191.637H104.447C104.433 191.536 104.404 191.447 104.36 191.369C104.317 191.289 104.26 191.222 104.192 191.166C104.123 191.111 104.044 191.068 103.954 191.038C103.865 191.009 103.769 190.994 103.664 190.994C103.476 190.994 103.312 191.041 103.173 191.134C103.033 191.227 102.925 191.362 102.848 191.539C102.771 191.715 102.732 191.93 102.732 192.182C102.732 192.441 102.771 192.659 102.848 192.835C102.926 193.012 103.035 193.145 103.174 193.235C103.314 193.325 103.476 193.37 103.659 193.37C103.762 193.37 103.857 193.356 103.945 193.329C104.034 193.302 104.112 193.262 104.181 193.21C104.25 193.157 104.307 193.092 104.351 193.016C104.398 192.941 104.43 192.854 104.447 192.757L105.225 192.761C105.205 192.928 105.155 193.089 105.074 193.244C104.995 193.397 104.888 193.535 104.753 193.657C104.619 193.778 104.459 193.874 104.273 193.945C104.089 194.015 103.88 194.05 103.647 194.05C103.322 194.05 103.032 193.976 102.777 193.83C102.522 193.683 102.321 193.47 102.173 193.192C102.026 192.914 101.953 192.577 101.953 192.182C101.953 191.785 102.027 191.448 102.176 191.17C102.326 190.892 102.528 190.68 102.784 190.534C103.039 190.387 103.327 190.314 103.647 190.314C103.857 190.314 104.053 190.344 104.233 190.403C104.414 190.462 104.574 190.548 104.714 190.662C104.853 190.774 104.967 190.912 105.055 191.076C105.143 191.239 105.2 191.426 105.225 191.637ZM105.776 194V190.364H106.545V191.864H108.106V190.364H108.873V194H108.106V192.498H106.545V194H105.776ZM112.848 192.182C112.848 192.578 112.773 192.916 112.623 193.194C112.474 193.472 112.27 193.685 112.012 193.831C111.755 193.977 111.466 194.05 111.146 194.05C110.823 194.05 110.533 193.976 110.276 193.83C110.019 193.683 109.816 193.47 109.667 193.192C109.518 192.914 109.443 192.577 109.443 192.182C109.443 191.785 109.518 191.448 109.667 191.17C109.816 190.892 110.019 190.68 110.276 190.534C110.533 190.387 110.823 190.314 111.146 190.314C111.466 190.314 111.755 190.387 112.012 190.534C112.27 190.68 112.474 190.892 112.623 191.17C112.773 191.448 112.848 191.785 112.848 192.182ZM112.069 192.182C112.069 191.925 112.031 191.708 111.954 191.532C111.878 191.356 111.771 191.222 111.632 191.131C111.494 191.04 111.332 190.994 111.146 190.994C110.96 190.994 110.798 191.04 110.659 191.131C110.521 191.222 110.413 191.356 110.336 191.532C110.26 191.708 110.222 191.925 110.222 192.182C110.222 192.439 110.26 192.655 110.336 192.832C110.413 193.008 110.521 193.142 110.659 193.233C110.798 193.324 110.96 193.37 111.146 193.37C111.332 193.37 111.494 193.324 111.632 193.233C111.771 193.142 111.878 193.008 111.954 192.832C112.031 192.655 112.069 192.439 112.069 192.182ZM113.418 194V190.364H114.187V193.366H115.746V194H113.418ZM119.455 192.182C119.455 192.578 119.38 192.916 119.229 193.194C119.08 193.472 118.877 193.685 118.619 193.831C118.362 193.977 118.073 194.05 117.752 194.05C117.429 194.05 117.139 193.976 116.882 193.83C116.625 193.683 116.422 193.47 116.273 193.192C116.124 192.914 116.049 192.577 116.049 192.182C116.049 191.785 116.124 191.448 116.273 191.17C116.422 190.892 116.625 190.68 116.882 190.534C117.139 190.387 117.429 190.314 117.752 190.314C118.073 190.314 118.362 190.387 118.619 190.534C118.877 190.68 119.08 190.892 119.229 191.17C119.38 191.448 119.455 191.785 119.455 192.182ZM118.675 192.182C118.675 191.925 118.637 191.708 118.56 191.532C118.484 191.356 118.377 191.222 118.239 191.131C118.1 191.04 117.938 190.994 117.752 190.994C117.566 190.994 117.404 191.04 117.266 191.131C117.127 191.222 117.019 191.356 116.942 191.532C116.867 191.708 116.829 191.925 116.829 192.182C116.829 192.439 116.867 192.655 116.942 192.832C117.019 193.008 117.127 193.142 117.266 193.233C117.404 193.324 117.566 193.37 117.752 193.37C117.938 193.37 118.1 193.324 118.239 193.233C118.377 193.142 118.484 193.008 118.56 192.832C118.637 192.655 118.675 192.439 118.675 192.182ZM122.436 191.539C122.411 191.453 122.376 191.376 122.331 191.31C122.286 191.243 122.231 191.186 122.166 191.14C122.102 191.092 122.028 191.056 121.946 191.031C121.864 191.006 121.773 190.994 121.674 190.994C121.488 190.994 121.325 191.04 121.184 191.132C121.044 191.225 120.935 191.359 120.857 191.536C120.779 191.711 120.74 191.925 120.74 192.178C120.74 192.432 120.778 192.647 120.855 192.825C120.932 193.002 121.041 193.138 121.182 193.231C121.323 193.324 121.489 193.37 121.681 193.37C121.855 193.37 122.004 193.339 122.127 193.277C122.251 193.215 122.346 193.126 122.411 193.013C122.477 192.899 122.51 192.765 122.51 192.61L122.666 192.633H121.729V192.054H123.251V192.512C123.251 192.832 123.183 193.106 123.048 193.336C122.913 193.564 122.727 193.741 122.491 193.865C122.254 193.988 121.983 194.05 121.677 194.05C121.337 194.05 121.037 193.975 120.779 193.824C120.521 193.673 120.32 193.458 120.175 193.18C120.032 192.9 119.961 192.569 119.961 192.185C119.961 191.891 120.003 191.628 120.088 191.397C120.175 191.165 120.295 190.969 120.451 190.808C120.606 190.647 120.786 190.524 120.992 190.44C121.198 190.356 121.421 190.314 121.661 190.314C121.867 190.314 122.059 190.344 122.237 190.404C122.414 190.464 122.572 190.548 122.709 190.657C122.848 190.766 122.961 190.895 123.048 191.045C123.136 191.195 123.192 191.359 123.217 191.539H122.436ZM123.469 190.364H124.33L125.159 191.93H125.194L126.024 190.364H126.885L125.558 192.714V194H124.795V192.714L123.469 190.364Z" fill="#431CA3"/>
<path d="M87.7051 182.263L86.5187 182.705C86.1316 182.85 85.8278 183.154 85.6862 183.537L85.1201 185.052C84.908 185.619 84.8703 186.237 85.0119 186.825C85.2034 187.625 85.5863 188.366 86.1233 188.99C83.6633 189.331 81.6861 189.385 79.276 188.969C79.9129 186.975 80.3999 185.24 81.786 183.666L82.3105 183.042C82.1273 183.008 81.6653 178.842 82.2272 177.876C83.3219 175.999 85.5489 176.394 86.1899 176.835C87.114 177.581 86.9017 178.451 87.2555 178.804C87.6468 179.196 87.9715 179.212 87.9881 179.37C88.0089 179.529 87.7966 179.678 87.73 179.778C87.8091 180.565 88.1338 181.194 88.1171 181.681C88.113 181.897 87.9049 182.188 87.7051 182.263Z" fill="#684204"/>
<path d="M69.0196 228.7C69.0196 228.7 68.5451 229.3 67.5377 229.937C66.5554 230.557 65.5689 231.164 65.7104 231.456C65.8561 231.743 68.2037 235.177 69.5774 235.972C70.951 236.767 69.773 235.273 69.7022 234.911C69.6315 234.549 68.928 232.825 69.5066 232.03C70.0852 231.235 70.772 230.765 70.5889 230.403C70.4099 230.049 69.5066 228.459 69.0196 228.7Z" fill="black"/>
<path d="M79.0804 206.656C79.0804 206.656 79.301 216.317 78.1438 218.053C76.9866 219.788 69.8812 225.907 68.3411 228.987C68.3411 228.987 69.3026 231.298 71.0384 231.202C71.0384 231.202 75.0178 226.527 77.9482 224.779C80.4457 223.289 81.9234 222.003 82.4562 220.7C82.9848 219.397 86.935 207.114 86.935 207.114L79.0804 206.656Z" fill="url(#paint54_linear_12_200)"/>
<path d="M67.0965 230.22C67.0965 230.22 66.7968 231.027 67.6834 231.568C68.4327 232.026 69.6315 231.934 69.569 232.7C69.5024 233.537 69.7314 234.969 70.4099 235.793C70.9052 236.397 72.3246 237.541 72.0041 237.824C71.7752 238.028 69.4733 238.411 66.9633 235.947C64.3201 233.354 64.241 232.001 64.3618 231.731C64.5199 231.356 65.7437 230.403 67.0965 230.22ZM88.55 233.3C88.55 233.3 88.5126 235.323 88.6957 235.831C88.8747 236.338 93.0664 236.264 94.0071 235.468C94.9478 234.673 91.7677 234.49 91.1516 233.878C90.8769 233.604 90.5689 232.834 90.5689 232.834L88.55 233.3Z" fill="black"/>
<path d="M79.3717 201.045C79.3717 201.045 78.2853 203.858 78.4435 205.894C78.7474 209.823 83.8048 218.244 84.3834 219.98C84.962 221.716 83.759 224.413 84.912 227.206C86.0692 229.999 88.0922 233.566 88.1421 233.758C88.1921 233.949 90.5938 234.195 91.1058 232.967C90.598 231.306 89.6781 228.172 89.3409 225.329C89.0038 222.486 88.4335 218.802 88.3378 217.02C88.242 215.239 85.9651 201.328 85.9651 201.328C85.9651 201.328 85.0078 201.477 79.3717 201.045Z" fill="url(#paint55_linear_12_200)"/>
<path d="M88.5625 234.615C88.5625 234.615 88.8414 235.831 90.0444 235.518C91.2473 235.206 90.7687 234.428 91.1724 234.12C91.4263 233.924 92.0257 234.045 93.3452 234.34C95.0227 234.715 97.7075 234.89 97.7075 235.835C97.7075 236.297 95.6596 237.4 93.212 237.662C90.7645 237.929 88.3794 237.421 88.113 237.275C87.8507 237.129 88.0547 235.377 88.5625 234.615Z" fill="black"/>
<path d="M85.2658 186.792C84.9245 185.489 83.272 184.478 81.8068 184.798C80.608 185.061 79.1761 187.408 78.9347 189.24C78.6932 191.071 79.8338 199.138 78.5725 202.102C78.5725 202.102 84.9828 204.137 87.4886 203.288C87.4886 203.288 86.7019 200.441 86.4605 198.302C86.0068 194.293 87.6801 193.839 87.626 191.637C87.601 190.255 85.5322 187.804 85.2658 186.792Z" fill="url(#paint56_linear_12_200)"/>
<path d="M82.1356 187.67C81.1866 187.487 80.3749 188.336 80.0169 190.834C79.5674 193.968 79.0845 198.518 79.3592 199.946C79.5133 200.745 84.4125 199.721 88.7873 198.227C89.4575 197.998 90.3732 198.78 91.0018 198.726C92.213 198.622 94.107 198.056 93.8156 197.398C93.6408 197.007 92.392 196.786 92.4586 196.736L93.9946 196.162C93.9571 195.787 93.1288 195.904 92.2921 195.75C91.0642 195.529 89.9861 195.754 88.7831 196.208C87.9257 196.532 83.8464 197.398 82.2688 197.107C82.5227 195.346 82.8599 193.173 83.0347 192.049C83.4302 189.448 83.6591 187.962 82.1356 187.67Z" fill="#684204"/>
<path d="M83.3885 192.295C82.3729 192.066 81.3489 191.987 80.3041 191.916L79.5923 191.866C79.6381 191.483 79.6839 191.109 79.7339 190.755C80.0918 188.257 81.2449 186.813 82.2147 187.129C83.6716 187.604 83.8381 189.448 83.4343 192.054C83.4218 192.129 83.4052 192.212 83.3885 192.295Z" fill="url(#paint57_linear_12_200)"/>
<path d="M82.6102 175.795C84.554 175.083 85.9693 176.344 86.1899 176.84C84.7164 177.019 85.7653 178.55 84.6872 179.37C83.6841 180.128 84.1586 181.264 83.9546 183.25C83.6258 186.447 79.763 185.81 79.0512 188.674C77.6068 184.957 81.1658 183.204 80.7703 180.761C80.3582 178.247 81.0034 176.386 82.6102 175.795Z" fill="black"/>
<defs>
<linearGradient id="paint0_linear_12_200" x1="167.424" y1="1.95472" x2="167.424" y2="227.775" gradientUnits="userSpaceOnUse">
<stop stop-color="#FFF7ED"/>
<stop offset="1" stop-color="#FED7AA"/>
</linearGradient>
<linearGradient id="paint1_linear_12_200" x1="229.461" y1="161.884" x2="293.945" y2="116.808" gradientUnits="userSpaceOnUse">
<stop offset="1"/>
</linearGradient>
<linearGradient id="paint2_linear_12_200" x1="207.473" y1="207.262" x2="252.474" y2="132.609" gradientUnits="userSpaceOnUse">
<stop stop-color="#7633FF"/>
<stop offset="0.159" stop-color="#7137FF"/>
<stop offset="0.353" stop-color="#6243FF"/>
<stop offset="0.568" stop-color="#4957FF"/>
<stop offset="0.794" stop-color="#2672FF"/>
<stop offset="1" stop-color="#0090FF"/>
</linearGradient>
<linearGradient id="paint3_linear_12_200" x1="234.867" y1="188.295" x2="234.694" y2="188.588" gradientUnits="userSpaceOnUse">
<stop offset="0.074" stop-color="#CEC228"/>
<stop offset="0.58" stop-color="#B2AE18"/>
</linearGradient>
<linearGradient id="paint4_linear_12_200" x1="208.346" y1="166.669" x2="214.833" y2="165.224" gradientUnits="userSpaceOnUse">
<stop stop-color="#7700BB"/>
<stop offset="1"/>
</linearGradient>
<linearGradient id="paint5_linear_12_200" x1="176.082" y1="185.397" x2="216.669" y2="176.36" gradientUnits="userSpaceOnUse">
<stop stop-color="#7700BB"/>
<stop offset="1"/>
</linearGradient>
<linearGradient id="paint6_linear_12_200" x1="225.454" y1="201.93" x2="259.26" y2="194.403" gradientUnits="userSpaceOnUse">
<stop stop-color="#7700BB"/>
<stop offset="1"/>
</linearGradient>
<linearGradient id="paint7_linear_12_200" x1="106.814" y1="153.497" x2="42.3216" y2="108.433" gradientUnits="userSpaceOnUse">
<stop offset="1"/>
</linearGradient>
<linearGradient id="paint8_linear_12_200" x1="197.024" y1="235.794" x2="237.492" y2="171.604" gradientUnits="userSpaceOnUse">
<stop stop-color="#59023F"/>
<stop offset="0.119" stop-color="#590444"/>
<stop offset="0.265" stop-color="#5A0A53"/>
<stop offset="0.426" stop-color="#5C156C"/>
<stop offset="0.597" stop-color="#5E238F"/>
<stop offset="0.776" stop-color="#6135BC"/>
<stop offset="0.96" stop-color="#644CF2"/>
<stop offset="1" stop-color="#6551FF"/>
</linearGradient>
<linearGradient id="paint9_linear_12_200" x1="223.852" y1="219.723" x2="223.788" y2="220.057" gradientUnits="userSpaceOnUse">
<stop offset="0.074" stop-color="#CEC228"/>
<stop offset="0.58" stop-color="#B2AE18"/>
</linearGradient>
<linearGradient id="paint10_linear_12_200" x1="191.626" y1="208.244" x2="197.253" y2="204.708" gradientUnits="userSpaceOnUse">
<stop stop-color="#7700BB"/>
<stop offset="1"/>
</linearGradient>
<linearGradient id="paint11_linear_12_200" x1="167.507" y1="236.707" x2="202.716" y2="214.584" gradientUnits="userSpaceOnUse">
<stop stop-color="#7700BB"/>
<stop offset="1"/>
</linearGradient>
<linearGradient id="paint12_linear_12_200" x1="124.079" y1="190.275" x2="30.2401" y2="140.041" gradientUnits="userSpaceOnUse">
<stop stop-color="#7633FF"/>
<stop offset="0.159" stop-color="#7137FF"/>
<stop offset="0.353" stop-color="#6243FF"/>
<stop offset="0.568" stop-color="#4957FF"/>
<stop offset="0.794" stop-color="#2672FF"/>
<stop offset="1" stop-color="#0090FF"/>
</linearGradient>
<linearGradient id="paint13_linear_12_200" x1="105.422" y1="196.61" x2="105.732" y2="196.75" gradientUnits="userSpaceOnUse">
<stop offset="0.074" stop-color="#CEC228"/>
<stop offset="0.58" stop-color="#B2AE18"/>
</linearGradient>
<linearGradient id="paint14_linear_12_200" x1="145.658" y1="236.235" x2="103.329" y2="164.137" gradientUnits="userSpaceOnUse">
<stop stop-color="#59023F"/>
<stop offset="0.119" stop-color="#590444"/>
<stop offset="0.265" stop-color="#5A0A53"/>
<stop offset="0.426" stop-color="#5C156C"/>
<stop offset="0.597" stop-color="#5E238F"/>
<stop offset="0.776" stop-color="#6135BC"/>
<stop offset="0.96" stop-color="#644CF2"/>
<stop offset="1" stop-color="#6551FF"/>
</linearGradient>
<linearGradient id="paint15_linear_12_200" x1="121.383" y1="220.243" x2="121.477" y2="220.57" gradientUnits="userSpaceOnUse">
<stop offset="0.074" stop-color="#CEC228"/>
<stop offset="0.58" stop-color="#B2AE18"/>
</linearGradient>
<linearGradient id="paint16_linear_12_200" x1="152.472" y1="205.914" x2="146.548" y2="202.896" gradientUnits="userSpaceOnUse">
<stop stop-color="#7700BB"/>
<stop offset="1"/>
</linearGradient>
<linearGradient id="paint17_linear_12_200" x1="179.046" y1="232.1" x2="141.992" y2="213.223" gradientUnits="userSpaceOnUse">
<stop stop-color="#7700BB"/>
<stop offset="1"/>
</linearGradient>
<linearGradient id="paint18_linear_12_200" x1="135.185" y1="221.112" x2="92.5207" y2="199.377" gradientUnits="userSpaceOnUse">
<stop stop-color="#7700BB"/>
<stop offset="1"/>
</linearGradient>
<linearGradient id="paint19_linear_12_200" x1="130.242" y1="97.0732" x2="133.897" y2="98.7401" gradientUnits="userSpaceOnUse">
<stop stop-color="#7633FF"/>
<stop offset="0.159" stop-color="#7137FF"/>
<stop offset="0.353" stop-color="#6243FF"/>
<stop offset="0.568" stop-color="#4957FF"/>
<stop offset="0.794" stop-color="#2672FF"/>
<stop offset="1" stop-color="#0090FF"/>
</linearGradient>
<linearGradient id="paint20_linear_12_200" x1="125.375" y1="98.1699" x2="128.611" y2="99.6455" gradientUnits="userSpaceOnUse">
<stop stop-color="#7633FF"/>
<stop offset="0.159" stop-color="#7137FF"/>
<stop offset="0.353" stop-color="#6243FF"/>
<stop offset="0.568" stop-color="#4957FF"/>
<stop offset="0.794" stop-color="#2672FF"/>
<stop offset="1" stop-color="#0090FF"/>
</linearGradient>
<linearGradient id="paint21_linear_12_200" x1="122.642" y1="103.128" x2="125.525" y2="104.443" gradientUnits="userSpaceOnUse">
<stop stop-color="#7633FF"/>
<stop offset="0.159" stop-color="#7137FF"/>
<stop offset="0.353" stop-color="#6243FF"/>
<stop offset="0.568" stop-color="#4957FF"/>
<stop offset="0.794" stop-color="#2672FF"/>
<stop offset="1" stop-color="#0090FF"/>
</linearGradient>
<linearGradient id="paint22_linear_12_200" x1="116.355" y1="100.343" x2="120.449" y2="102.209" gradientUnits="userSpaceOnUse">
<stop stop-color="#7633FF"/>
<stop offset="0.159" stop-color="#7137FF"/>
<stop offset="0.353" stop-color="#6243FF"/>
<stop offset="0.568" stop-color="#4957FF"/>
<stop offset="0.794" stop-color="#2672FF"/>
<stop offset="1" stop-color="#0090FF"/>
</linearGradient>
<linearGradient id="paint23_linear_12_200" x1="110.106" y1="110.013" x2="114.89" y2="112.195" gradientUnits="userSpaceOnUse">
<stop stop-color="#7633FF"/>
<stop offset="0.159" stop-color="#7137FF"/>
<stop offset="0.353" stop-color="#6243FF"/>
<stop offset="0.568" stop-color="#4957FF"/>
<stop offset="0.794" stop-color="#2672FF"/>
<stop offset="1" stop-color="#0090FF"/>
</linearGradient>
<linearGradient id="paint24_linear_12_200" x1="112.732" y1="104.221" x2="116.594" y2="105.982" gradientUnits="userSpaceOnUse">
<stop stop-color="#7633FF"/>
<stop offset="0.159" stop-color="#7137FF"/>
<stop offset="0.353" stop-color="#6243FF"/>
<stop offset="0.568" stop-color="#4957FF"/>
<stop offset="0.794" stop-color="#2672FF"/>
<stop offset="1" stop-color="#0090FF"/>
</linearGradient>
<linearGradient id="paint25_linear_12_200" x1="198.756" y1="100.175" x2="195.1" y2="101.842" gradientUnits="userSpaceOnUse">
<stop stop-color="#7633FF"/>
<stop offset="0.159" stop-color="#7137FF"/>
<stop offset="0.353" stop-color="#6243FF"/>
<stop offset="0.568" stop-color="#4957FF"/>
<stop offset="0.794" stop-color="#2672FF"/>
<stop offset="1" stop-color="#0090FF"/>
</linearGradient>
<linearGradient id="paint26_linear_12_200" x1="203.622" y1="101.272" x2="200.387" y2="102.748" gradientUnits="userSpaceOnUse">
<stop stop-color="#7633FF"/>
<stop offset="0.159" stop-color="#7137FF"/>
<stop offset="0.353" stop-color="#6243FF"/>
<stop offset="0.568" stop-color="#4957FF"/>
<stop offset="0.794" stop-color="#2672FF"/>
<stop offset="1" stop-color="#0090FF"/>
</linearGradient>
<linearGradient id="paint27_linear_12_200" x1="206.355" y1="106.231" x2="203.472" y2="107.545" gradientUnits="userSpaceOnUse">
<stop stop-color="#7633FF"/>
<stop offset="0.159" stop-color="#7137FF"/>
<stop offset="0.353" stop-color="#6243FF"/>
<stop offset="0.568" stop-color="#4957FF"/>
<stop offset="0.794" stop-color="#2672FF"/>
<stop offset="1" stop-color="#0090FF"/>
</linearGradient>
<linearGradient id="paint28_linear_12_200" x1="212.642" y1="103.445" x2="208.548" y2="105.311" gradientUnits="userSpaceOnUse">
<stop stop-color="#7633FF"/>
<stop offset="0.159" stop-color="#7137FF"/>
<stop offset="0.353" stop-color="#6243FF"/>
<stop offset="0.568" stop-color="#4957FF"/>
<stop offset="0.794" stop-color="#2672FF"/>
<stop offset="1" stop-color="#0090FF"/>
</linearGradient>
<linearGradient id="paint29_linear_12_200" x1="218.891" y1="113.115" x2="214.108" y2="115.296" gradientUnits="userSpaceOnUse">
<stop stop-color="#7633FF"/>
<stop offset="0.159" stop-color="#7137FF"/>
<stop offset="0.353" stop-color="#6243FF"/>
<stop offset="0.568" stop-color="#4957FF"/>
<stop offset="0.794" stop-color="#2672FF"/>
<stop offset="1" stop-color="#0090FF"/>
</linearGradient>
<linearGradient id="paint30_linear_12_200" x1="216.265" y1="107.323" x2="212.403" y2="109.084" gradientUnits="userSpaceOnUse">
<stop stop-color="#7633FF"/>
<stop offset="0.159" stop-color="#7137FF"/>
<stop offset="0.353" stop-color="#6243FF"/>
<stop offset="0.568" stop-color="#4957FF"/>
<stop offset="0.794" stop-color="#2672FF"/>
<stop offset="1" stop-color="#0090FF"/>
</linearGradient>
<linearGradient id="paint31_linear_12_200" x1="172.067" y1="136.724" x2="159.508" y2="85.0923" gradientUnits="userSpaceOnUse">
<stop stop-color="white"/>
<stop offset="0.122" stop-color="#FBFDFF"/>
<stop offset="0.248" stop-color="#EFF5FF"/>
<stop offset="0.374" stop-color="#DAE9FF"/>
<stop offset="0.501" stop-color="#BDD9FF"/>
<stop offset="0.629" stop-color="#98C3FF"/>
<stop offset="0.758" stop-color="#6BA9FF"/>
<stop offset="0.885" stop-color="#378AFF"/>
<stop offset="1" stop-color="#006AFF"/>
</linearGradient>
<linearGradient id="paint32_linear_12_200" x1="168.937" y1="109.924" x2="168.937" y2="57.3106" gradientUnits="userSpaceOnUse">
<stop stop-color="white"/>
<stop offset="0.122" stop-color="#FBFDFF"/>
<stop offset="0.248" stop-color="#EFF5FF"/>
<stop offset="0.374" stop-color="#DAE9FF"/>
<stop offset="0.501" stop-color="#BDD9FF"/>
<stop offset="0.629" stop-color="#98C3FF"/>
<stop offset="0.758" stop-color="#6BA9FF"/>
<stop offset="0.885" stop-color="#378AFF"/>
<stop offset="1" stop-color="#006AFF"/>
</linearGradient>
<linearGradient id="paint33_linear_12_200" x1="139.587" y1="126.774" x2="134.005" y2="181.197" gradientUnits="userSpaceOnUse">
<stop stop-color="white"/>
<stop offset="0.122" stop-color="#FBFDFF"/>
<stop offset="0.248" stop-color="#EFF5FF"/>
<stop offset="0.374" stop-color="#DAE9FF"/>
<stop offset="0.501" stop-color="#BDD9FF"/>
<stop offset="0.629" stop-color="#98C3FF"/>
<stop offset="0.758" stop-color="#6BA9FF"/>
<stop offset="0.885" stop-color="#378AFF"/>
<stop offset="1" stop-color="#006AFF"/>
</linearGradient>
<linearGradient id="paint34_linear_12_200" x1="185.703" y1="129.586" x2="203.379" y2="179.357" gradientUnits="userSpaceOnUse">
<stop stop-color="white"/>
<stop offset="0.122" stop-color="#FBFDFF"/>
<stop offset="0.248" stop-color="#EFF5FF"/>
<stop offset="0.374" stop-color="#DAE9FF"/>
<stop offset="0.501" stop-color="#BDD9FF"/>
<stop offset="0.629" stop-color="#98C3FF"/>
<stop offset="0.758" stop-color="#6BA9FF"/>
<stop offset="0.885" stop-color="#378AFF"/>
<stop offset="1" stop-color="#006AFF"/>
</linearGradient>
<linearGradient id="paint35_linear_12_200" x1="168.653" y1="133.181" x2="168.653" y2="193.202" gradientUnits="userSpaceOnUse">
<stop stop-color="#2B1700"/>
<stop offset="0.114" stop-color="#2B1700"/>
<stop offset="0.337" stop-color="#2B1700"/>
<stop offset="0.647" stop-color="#2B1700"/>
<stop offset="1" stop-color="#00002E"/>
</linearGradient>
<linearGradient id="paint36_linear_12_200" x1="169.288" y1="213.342" x2="169.288" y2="152.087" gradientUnits="userSpaceOnUse">
<stop/>
<stop offset="0.101" stop-color="#020305"/>
<stop offset="0.224" stop-color="#0A0B14"/>
<stop offset="0.36" stop-color="#151A2D"/>
<stop offset="0.505" stop-color="#252D50"/>
<stop offset="0.657" stop-color="#3A477D"/>
<stop offset="0.814" stop-color="#5466B4"/>
<stop offset="0.974" stop-color="#728AF4"/>
<stop offset="1" stop-color="#7790FF"/>
</linearGradient>
<linearGradient id="paint37_linear_12_200" x1="101.53" y1="210.102" x2="178.192" y2="210.102" gradientUnits="userSpaceOnUse">
<stop stop-color="#311842"/>
<stop offset="0.461" stop-color="#190C4B"/>
<stop offset="1" stop-color="#000054"/>
</linearGradient>
<linearGradient id="paint38_linear_12_200" x1="173.115" y1="234.189" x2="214.666" y2="234.189" gradientUnits="userSpaceOnUse">
<stop stop-color="white"/>
<stop offset="0.122" stop-color="#FBFDFF"/>
<stop offset="0.248" stop-color="#EFF5FF"/>
<stop offset="0.374" stop-color="#DAE9FF"/>
<stop offset="0.501" stop-color="#BDD9FF"/>
<stop offset="0.629" stop-color="#98C3FF"/>
<stop offset="0.758" stop-color="#6BA9FF"/>
<stop offset="0.885" stop-color="#378AFF"/>
<stop offset="1" stop-color="#006AFF"/>
</linearGradient>
<linearGradient id="paint39_linear_12_200" x1="162.3" y1="210.567" x2="238.963" y2="210.567" gradientUnits="userSpaceOnUse">
<stop stop-color="#311842"/>
<stop offset="0.461" stop-color="#190C4B"/>
<stop offset="1" stop-color="#000054"/>
</linearGradient>
<linearGradient id="paint40_linear_12_200" x1="166.508" y1="222.87" x2="106.26" y2="245.874" gradientUnits="userSpaceOnUse">
<stop stop-color="white"/>
<stop offset="0.122" stop-color="#FBFDFF"/>
<stop offset="0.248" stop-color="#EFF5FF"/>
<stop offset="0.374" stop-color="#DAE9FF"/>
<stop offset="0.501" stop-color="#BDD9FF"/>
<stop offset="0.629" stop-color="#98C3FF"/>
<stop offset="0.758" stop-color="#6BA9FF"/>
<stop offset="0.885" stop-color="#378AFF"/>
<stop offset="1" stop-color="#006AFF"/>
</linearGradient>
<linearGradient id="paint41_linear_12_200" x1="231.573" y1="162.243" x2="250.811" y2="195.421" gradientUnits="userSpaceOnUse">
<stop stop-color="#FF5E00"/>
<stop offset="0.067" stop-color="#DE5F28"/>
<stop offset="0.162" stop-color="#B5615A"/>
<stop offset="0.262" stop-color="#906286"/>
<stop offset="0.365" stop-color="#7163AB"/>
<stop offset="0.472" stop-color="#5864CA"/>
<stop offset="0.584" stop-color="#4565E1"/>
<stop offset="0.703" stop-color="#3766F2"/>
<stop offset="0.834" stop-color="#2F66FC"/>
<stop offset="1" stop-color="#2C66FF"/>
</linearGradient>
<linearGradient id="paint42_linear_12_200" x1="238.6" y1="189.277" x2="237.453" y2="209.527" gradientUnits="userSpaceOnUse">
<stop stop-color="#403372"/>
<stop offset="0.143" stop-color="#3E3677"/>
<stop offset="0.318" stop-color="#374086"/>
<stop offset="0.511" stop-color="#2B519F"/>
<stop offset="0.716" stop-color="#1C68C2"/>
<stop offset="0.929" stop-color="#0885EE"/>
<stop offset="1" stop-color="#0090FF"/>
</linearGradient>
<linearGradient id="paint43_linear_12_200" x1="224.422" y1="160.672" x2="243.66" y2="193.85" gradientUnits="userSpaceOnUse">
<stop stop-color="#FF5E00"/>
<stop offset="0.151" stop-color="#FC5E03"/>
<stop offset="0.28" stop-color="#F45E0E"/>
<stop offset="0.401" stop-color="#E55F20"/>
<stop offset="0.517" stop-color="#D06038"/>
<stop offset="0.63" stop-color="#B66159"/>
<stop offset="0.74" stop-color="#956280"/>
<stop offset="0.847" stop-color="#6F63AF"/>
<stop offset="0.951" stop-color="#4365E3"/>
<stop offset="1" stop-color="#2C66FF"/>
</linearGradient>
<linearGradient id="paint44_linear_12_200" x1="222.378" y1="154.189" x2="236.668" y2="154.189" gradientUnits="userSpaceOnUse">
<stop stop-color="#88CFDA"/>
<stop offset="0.008" stop-color="#89CFD9"/>
<stop offset="0.478" stop-color="#C8D9BB"/>
<stop offset="0.822" stop-color="#F0DFA7"/>
<stop offset="1" stop-color="#FFE1A0"/>
</linearGradient>
<linearGradient id="paint45_linear_12_200" x1="229.623" y1="187.834" x2="236.863" y2="173.942" gradientUnits="userSpaceOnUse">
<stop stop-color="#FF5E00"/>
<stop offset="0.118" stop-color="#FB5E04"/>
<stop offset="0.242" stop-color="#F15F11"/>
<stop offset="0.37" stop-color="#DF5F26"/>
<stop offset="0.5" stop-color="#C76044"/>
<stop offset="0.632" stop-color="#A7616A"/>
<stop offset="0.765" stop-color="#806399"/>
<stop offset="0.897" stop-color="#5464CF"/>
<stop offset="1" stop-color="#2C66FF"/>
</linearGradient>
<linearGradient id="paint46_linear_12_200" x1="238.512" y1="197.784" x2="239.683" y2="197.784" gradientUnits="userSpaceOnUse">
<stop offset="0.041" stop-color="#100060"/>
<stop offset="1" stop-color="#090E96"/>
</linearGradient>
<linearGradient id="paint47_linear_12_200" x1="114.537" y1="152.888" x2="124.871" y2="133.697" gradientUnits="userSpaceOnUse">
<stop stop-color="#88CFDA"/>
<stop offset="0.008" stop-color="#89CFD9"/>
<stop offset="0.478" stop-color="#C8D9BB"/>
<stop offset="0.822" stop-color="#F0DFA7"/>
<stop offset="1" stop-color="#FFE1A0"/>
</linearGradient>
<linearGradient id="paint48_linear_12_200" x1="111.021" y1="171.538" x2="112.275" y2="158.274" gradientUnits="userSpaceOnUse">
<stop offset="0.041" stop-color="#EB3300"/>
<stop offset="1" stop-color="#FF8800"/>
</linearGradient>
<linearGradient id="paint49_linear_12_200" x1="109.701" y1="157.518" x2="113.078" y2="145.781" gradientUnits="userSpaceOnUse">
<stop offset="0.193" stop-color="#2F1109"/>
<stop offset="0.681" stop-color="#7A3E25"/>
</linearGradient>
<linearGradient id="paint50_linear_12_200" x1="267.165" y1="210.72" x2="244.002" y2="188.798" gradientUnits="userSpaceOnUse">
<stop stop-color="#88CFDA"/>
<stop offset="0.008" stop-color="#89CFD9"/>
<stop offset="0.478" stop-color="#C8D9BB"/>
<stop offset="0.822" stop-color="#F0DFA7"/>
<stop offset="1" stop-color="#FFE1A0"/>
</linearGradient>
<linearGradient id="paint51_linear_12_200" x1="272.174" y1="208.283" x2="274.424" y2="190.071" gradientUnits="userSpaceOnUse">
<stop stop-color="#7633FF"/>
<stop offset="0.159" stop-color="#7137FF"/>
<stop offset="0.353" stop-color="#6243FF"/>
<stop offset="0.568" stop-color="#4957FF"/>
<stop offset="0.794" stop-color="#2672FF"/>
<stop offset="1" stop-color="#0090FF"/>
</linearGradient>
<linearGradient id="paint52_linear_12_200" x1="274.167" y1="191.703" x2="274.58" y2="197.677" gradientUnits="userSpaceOnUse">
<stop stop-color="#7633FF"/>
<stop offset="0.159" stop-color="#7137FF"/>
<stop offset="0.353" stop-color="#6243FF"/>
<stop offset="0.568" stop-color="#4957FF"/>
<stop offset="0.794" stop-color="#2672FF"/>
<stop offset="1" stop-color="#0090FF"/>
</linearGradient>
<linearGradient id="paint53_linear_12_200" x1="89.7273" y1="211.551" x2="124.932" y2="173.586" gradientUnits="userSpaceOnUse">
<stop stop-color="#88CFDA"/>
<stop offset="0.008" stop-color="#89CFD9"/>
<stop offset="0.478" stop-color="#C8D9BB"/>
<stop offset="0.822" stop-color="#F0DFA7"/>
<stop offset="1" stop-color="#FFE1A0"/>
</linearGradient>
<linearGradient id="paint54_linear_12_200" x1="86.9362" y1="218.932" x2="68.3394" y2="218.932" gradientUnits="userSpaceOnUse">
<stop stop-color="#311341"/>
<stop offset="0.23" stop-color="#3113C2"/>
<stop offset="0.348" stop-color="#2F18C5"/>
<stop offset="0.493" stop-color="#2927CC"/>
<stop offset="0.652" stop-color="#1F40D8"/>
<stop offset="0.822" stop-color="#1263E9"/>
<stop offset="0.998" stop-color="#008FFF"/>
<stop offset="1" stop-color="#0090FF"/>
</linearGradient>
<linearGradient id="paint55_linear_12_200" x1="80.9664" y1="197.338" x2="85.9726" y2="223.132" gradientUnits="userSpaceOnUse">
<stop stop-color="#7633FF"/>
<stop offset="0.159" stop-color="#7137FF"/>
<stop offset="0.353" stop-color="#6243FF"/>
<stop offset="0.568" stop-color="#4957FF"/>
<stop offset="0.794" stop-color="#2672FF"/>
<stop offset="1" stop-color="#0090FF"/>
</linearGradient>
<linearGradient id="paint56_linear_12_200" x1="84.1569" y1="205.345" x2="81.6228" y2="184.83" gradientUnits="userSpaceOnUse">
<stop offset="0.041" stop-color="#EB3300"/>
<stop offset="1" stop-color="#FF8800"/>
</linearGradient>
<linearGradient id="paint57_linear_12_200" x1="81.9113" y1="186.669" x2="81.4463" y2="193.398" gradientUnits="userSpaceOnUse">
<stop stop-color="#FF5E00"/>
<stop offset="0.151" stop-color="#FC5E03"/>
<stop offset="0.28" stop-color="#F45E0E"/>
<stop offset="0.401" stop-color="#E55F20"/>
<stop offset="0.517" stop-color="#D06038"/>
<stop offset="0.63" stop-color="#B66159"/>
<stop offset="0.74" stop-color="#956280"/>
<stop offset="0.847" stop-color="#6F63AF"/>
<stop offset="0.951" stop-color="#4365E3"/>
<stop offset="1" stop-color="#2C66FF"/>
</linearGradient>
</defs>
</svg>
