<svg width="61" height="61" viewBox="0 0 61 61" fill="none" xmlns="http://www.w3.org/2000/svg">
<path d="M24.6141 0.0599495C22.4806 0.234826 21.299 0.436198 19.7704 0.870739C17.5478 1.50665 15.6582 2.43933 13.806 3.81184C10.2893 6.42438 7.79476 10.3353 6.8007 14.7972C6.33649 16.8905 6.3318 18.1941 6.78194 19.4659L6.88041 19.7468L6.65534 20.1283C6.15362 20.9762 5.71754 21.6174 3.86071 24.2194C1.82101 27.0757 0.972309 28.4058 0.51748 29.4604C-0.171799 31.0501 0.100162 31.7231 1.83039 32.7194C2.23833 32.9526 2.37431 33.0003 2.79163 33.0692C3.54186 33.1963 3.76224 33.2811 3.992 33.5461C4.17956 33.7528 4.19363 33.7899 4.19363 34.0495C4.19363 34.2244 4.13267 34.5477 4.02952 34.9027C3.94043 35.2207 3.8654 35.5333 3.8654 35.5969C3.8654 35.7824 3.66847 36.2116 3.39651 36.6197C3.08703 37.086 2.97919 37.351 2.9745 37.6371C2.9745 38.1088 3.16675 38.4267 3.77631 38.9567C4.28741 39.3912 4.32492 39.476 4.13736 39.7516C4.08109 39.8363 3.90291 40.0642 3.7388 40.2603C3.57938 40.4617 3.40119 40.7213 3.34493 40.8432C3.1855 41.1983 3.23239 41.3307 3.76224 42.0249C4.5031 43 4.74693 43.567 4.69535 44.1659C4.68128 44.3301 4.48903 45.072 4.27334 45.8139C3.81382 47.3613 3.72473 47.7959 3.72473 48.4583C3.72473 49.0253 3.83727 49.4757 4.08109 49.8944C4.74693 51.0337 5.51123 51.6961 6.70692 52.1572L7.21801 52.3532L11.1802 52.3956L15.1424 52.4433L15.344 52.6924C15.9629 53.4661 16.5162 55.5275 17.0133 58.9085C17.229 60.3869 17.2383 60.3764 17.5994 58.3096C18.7154 51.8445 19.3765 45.7344 19.2077 43.4716C19.0717 41.6752 18.3262 39.9105 16.3005 36.6197C14.8376 34.2456 14.4296 33.4666 13.9983 32.2213C12.9901 29.3385 12.3665 26.4027 12.1649 23.5941C12.0523 22.0255 12.1274 19.5984 12.329 18.1517C12.8213 14.6489 14.0311 11.517 15.9301 8.83026C16.5491 7.95588 17.7916 6.55687 18.5888 5.83616C19.2733 5.21615 20.3987 4.35237 21.1396 3.87013C23.6575 2.24325 26.7382 1.11451 30.0392 0.600476C30.4706 0.536885 30.8176 0.473293 30.8082 0.462695C30.7801 0.436198 29.439 0.245424 28.6466 0.160636C27.901 0.0811466 25.1674 0.012256 24.6141 0.0599495Z" fill="#FED7AA"/>
<path d="M32.8664 0.293059C32.1678 0.335453 31.0518 0.441439 31.0284 0.467935C31.0237 0.478534 31.38 0.563322 31.8255 0.658709C37.0256 1.79805 41.2597 4.4 44.12 8.21548C46.3472 11.1937 47.632 14.5852 48.115 18.7611C48.2369 19.8156 48.2369 23.0217 48.115 24.1398C47.8758 26.3337 47.4773 28.3315 46.8536 30.4195C46.2112 32.5816 45.8174 33.4771 44.7061 35.3001C42.7977 38.4373 42.4648 39.0308 41.9396 40.2602C41.3722 41.585 41.1659 42.4064 41.1143 43.5405C41.0018 45.9728 41.8036 52.9361 42.8774 58.8819C43.1306 60.265 43.154 60.3074 43.2619 59.5655C43.562 57.4829 43.8621 55.9302 44.1715 54.8491C44.3779 54.1284 44.7811 53.1746 45.0109 52.8725L45.1844 52.6499L47.0881 52.6446C48.1384 52.6393 49.9343 52.6234 51.0831 52.6022L53.1697 52.5652L53.5682 52.4168C54.8436 51.9451 55.9033 50.9754 56.4144 49.7989C56.5692 49.4492 56.5879 49.3644 56.6067 48.8716C56.6348 48.1138 56.541 47.6209 56.0721 46.0364C55.8518 45.2945 55.6595 44.5632 55.6454 44.4096C55.6267 44.2082 55.6454 44.028 55.7158 43.7683C55.8564 43.2437 56.0534 42.9205 56.7661 42.0037C56.9302 41.797 57.0474 41.5903 57.0662 41.4844C57.1084 41.23 56.9537 40.9226 56.5223 40.3821C56.1472 39.9211 56.0581 39.7409 56.1331 39.5978C56.1519 39.5554 56.3722 39.3435 56.6161 39.1315C57.1365 38.6704 57.3241 38.3684 57.3569 37.955C57.3804 37.5947 57.3053 37.388 56.9255 36.8104C56.6114 36.3335 56.4754 36.0314 56.4754 35.8194C56.4754 35.7505 56.4004 35.4432 56.3113 35.1411C56.0956 34.4098 56.0909 34.076 56.2878 33.8216C56.4848 33.5672 56.7942 33.4348 57.4601 33.3129C57.9805 33.2175 58.0884 33.1804 58.5573 32.9048C59.4763 32.3696 59.8046 32.0887 60.0109 31.6701C60.2781 31.1137 60.2078 30.5466 59.753 29.5451C59.2653 28.464 58.4729 27.2293 56.4285 24.3783C54.7921 22.0943 53.4745 20.123 53.4745 19.9693C53.4745 19.9428 53.5307 19.7679 53.5964 19.5771C53.8824 18.7822 53.9715 17.6535 53.8261 16.6148C53.2869 12.7941 51.7114 9.32833 49.2544 6.54621C46.1128 2.99039 41.8411 0.87598 36.7583 0.372548C35.7736 0.277161 33.7902 0.234767 32.8664 0.293059Z" fill="#FED7AA"/>
<path d="M27.6149 4.78155C27.0804 4.82394 25.8331 5.02001 25.2001 5.16839C18.026 6.81117 14.3967 12.2323 14.6265 20.9867C14.7671 26.5245 15.7659 29.8789 18.0916 32.6134C18.2511 32.7935 18.8747 33.44 19.4796 34.0389C20.0844 34.6377 20.7878 35.3637 21.041 35.6551C22.5883 37.4198 23.287 39.3646 23.4042 42.2369L23.4324 43.0052H26.5693H29.7015V23.9066C29.7015 6.54091 29.6968 4.80804 29.6265 4.77625C29.5515 4.74445 28.051 4.74975 27.6149 4.78155Z" fill="#FED7AA"/>
<path d="M31.8819 5.17375C30.9441 5.70898 30.7565 6.03753 30.7612 7.15568C30.7612 7.68561 30.7753 7.7757 30.9112 8.14665C30.9956 8.38512 31.0472 8.59709 31.0285 8.65008C31.0097 8.70307 30.855 9.01043 30.6815 9.33899C30.508 9.66754 30.3439 10.0544 30.311 10.2028C30.2032 10.7168 30.3345 11.1301 30.7753 11.6389L31.0425 11.9515L30.8831 12.1211C30.6815 12.3437 30.6111 12.4974 30.5736 12.81C30.5408 13.0485 30.5502 13.0697 30.7049 13.2499C30.7987 13.3558 30.8737 13.4671 30.8737 13.5042C30.8737 13.5413 30.8081 13.854 30.7237 14.2037C30.583 14.8078 30.5783 14.8873 30.5736 15.873C30.5736 17.0017 30.6111 17.2402 30.8737 17.8337C31.0003 18.1146 31.2957 18.4802 31.4411 18.5332C31.4927 18.5544 31.4598 18.671 31.3098 19.0314C30.6346 20.6476 30.6018 20.8437 30.583 23.0535L30.5689 24.8023L30.6909 25.0937C30.7565 25.2527 30.8878 25.4912 30.9816 25.6131C31.08 25.7403 31.1551 25.8568 31.1551 25.8674C31.1551 25.878 31.08 25.9999 30.9863 26.1324C30.6393 26.6464 30.4799 27.1923 30.508 27.7381C30.5221 28.0295 30.5502 28.1408 30.6768 28.3581C30.855 28.6814 30.8597 28.729 30.7143 29.206C30.658 29.4074 30.5455 29.8472 30.4705 30.1811C30.3439 30.7587 30.3345 30.8488 30.3345 31.9563V33.1222L30.5408 33.615C30.8034 34.235 30.8034 34.3675 30.5502 34.8126C30.3017 35.2366 30.2642 35.3955 30.2642 35.9679C30.2642 36.307 30.3017 36.5879 30.4095 37.0542C30.583 37.812 30.7331 38.6228 30.7331 38.803C30.7331 38.8719 30.6862 38.9991 30.6299 39.0838C30.5361 39.2269 30.5267 39.3064 30.5267 39.9741C30.5221 40.6577 30.5314 40.716 30.6487 40.9916C30.719 41.1506 30.8643 41.3837 30.9769 41.5056C31.2442 41.7971 31.6943 42.0673 31.8537 42.0249C31.9522 42.0037 32.0131 42.0355 32.1632 42.2104C32.4305 42.5178 32.7165 42.6079 33.4292 42.6026C34.0997 42.6026 34.4327 42.5072 35.1876 42.0938C35.5908 41.8713 35.7315 41.76 35.9613 41.4844C36.116 41.2989 36.4161 40.9439 36.6271 40.7001C37.0069 40.2603 37.0163 40.2497 37.2367 40.2497C37.3586 40.2497 37.6399 40.3027 37.8603 40.361C38.3151 40.4935 39.0513 40.5146 39.4311 40.414C39.7593 40.3239 40.5705 39.8787 40.7815 39.6668C41.0488 39.4018 41.4051 38.5274 41.5224 37.8491C41.5693 37.5577 41.6396 37.2662 41.6771 37.2079C41.7193 37.1337 41.8694 37.0489 42.0991 36.9694C42.5164 36.8264 42.9197 36.5455 43.1729 36.2275C43.3886 35.9573 43.8997 35.0723 44.0966 34.6324C44.2654 34.2615 44.378 33.7581 44.378 33.3871C44.378 33.101 44.2326 32.1577 44.1482 31.9139C44.0779 31.7019 44.0825 31.49 44.1763 31.2356C44.242 31.0501 44.2467 30.96 44.1998 30.6421C44.1623 30.3718 44.1623 30.2393 44.1998 30.1599C44.2279 30.0963 44.4905 29.7889 44.7812 29.4762C45.2079 29.0152 45.3439 28.8297 45.4752 28.5383C45.8878 27.6056 45.7893 26.6199 45.1751 25.5813C44.9828 25.2527 44.95 25.1732 45.0063 25.1361C45.2267 24.9984 45.4845 24.7228 45.5689 24.5373C45.8034 24.0286 45.5971 22.8627 45.1282 22.052C45.0063 21.8453 44.8468 21.6121 44.7671 21.5379L44.6218 21.4001L44.603 20.69C44.5843 20.0223 44.5749 19.9587 44.4342 19.609C44.3217 19.3387 44.1998 19.1533 43.9935 18.936L43.7074 18.6339L43.8106 18.1782C43.9606 17.4946 44.0169 16.7315 43.9606 16.1062C43.8622 15.0092 43.5339 14.3362 42.7415 13.589C42.1038 12.9902 42.0241 12.7994 41.9397 11.7714C41.8553 10.7115 41.7428 10.2982 41.452 9.9749C41.2645 9.75763 40.9175 9.61985 40.5799 9.61985C40.1626 9.61985 40.0829 9.42907 40.2282 8.78256C40.383 8.11485 40.1157 7.29346 39.5296 6.62575C38.8825 5.88386 38.1604 5.65599 37.2742 5.91035C37.0772 5.96864 36.8053 6.09053 36.674 6.18061C36.5427 6.2707 36.3692 6.35549 36.2801 6.37139C36.1441 6.39789 36.0972 6.37139 35.8909 6.15412C35.5299 5.77257 34.7093 5.38042 34.2732 5.38042C34.1888 5.38042 34.0435 5.31153 33.9028 5.19495C33.659 4.99888 33.4198 4.92998 32.8196 4.88229L32.4445 4.8505L31.8819 5.17375ZM33.5277 5.35393C33.7762 5.5288 34.0528 5.94745 34.1701 6.32899C34.2123 6.46148 34.2779 6.77413 34.3154 7.0232C34.3717 7.36235 34.4092 7.48954 34.4842 7.54783C34.7046 7.71741 34.5171 8.22084 34.1841 8.34802C34.0997 8.37452 33.8794 8.39571 33.6871 8.39041C33.448 8.37982 33.3401 8.39571 33.3261 8.43811C33.2932 8.54409 33.5371 8.61828 34.0435 8.65008C34.4327 8.67658 34.5405 8.66598 34.6905 8.58649C34.9109 8.4646 35.0516 8.16784 35.061 7.7969C35.0657 7.44184 34.9906 7.23517 34.7937 7.09209C34.6577 6.9914 34.6296 6.93311 34.5874 6.65225C34.5593 6.47208 34.4795 6.19121 34.4139 6.03224C34.3483 5.86796 34.306 5.72488 34.3154 5.70898C34.3529 5.67188 35 5.91035 35.2532 6.05343C35.558 6.22831 35.9237 6.62046 36.055 6.91721C36.2145 7.26697 36.2332 7.55843 36.1535 8.21024C36.0503 8.99983 36.055 9.2224 36.1723 9.35488C36.388 9.59865 36.4395 9.46087 36.463 8.54409C36.477 8.04066 36.5052 7.7386 36.5427 7.69621C36.5755 7.65911 36.7209 7.63262 36.8662 7.62732C37.2085 7.62202 37.3539 7.56903 37.3351 7.45774C37.3211 7.38885 37.2507 7.36235 36.9928 7.34116C36.81 7.32526 36.6365 7.29346 36.6036 7.27227C36.5474 7.22987 36.3411 6.81123 36.3692 6.79003C36.6693 6.54627 37.2226 6.2654 37.5789 6.17532C38.0103 6.06933 38.5308 6.14882 38.8543 6.37669C39.206 6.62575 39.7077 7.33056 39.8953 7.83929C39.9985 8.12545 39.9891 8.68717 39.8719 9.11642C39.8203 9.30719 39.764 9.46087 39.7453 9.45027C39.7265 9.43967 39.4874 9.30719 39.2107 9.15351C38.6152 8.82496 38.2213 8.69247 38.0854 8.77726C37.9494 8.85675 38.0056 8.94684 38.2401 9.03163C38.5543 9.14291 38.9809 9.36548 39.0513 9.45557C39.0888 9.50326 39.1544 9.67284 39.192 9.83712C39.2904 10.2187 39.3936 10.33 39.5671 10.2558C39.6374 10.2293 39.7124 10.2028 39.7359 10.2028C39.8015 10.2028 39.9141 10.7062 39.9516 11.1354C39.9891 11.5912 40.0266 11.6866 40.1438 11.6018C40.2704 11.5117 40.2517 10.6108 40.1157 10.1869L40.0219 9.88481H40.1954C40.4064 9.88481 40.7815 9.9961 40.9831 10.1127C41.2035 10.2399 41.4473 10.5896 41.5364 10.9076C41.5927 11.0877 41.6302 11.4269 41.6443 11.9038L41.6724 12.6245L41.4802 12.7941C41.3676 12.9001 41.2645 13.0591 41.2129 13.2022C41.0722 13.6208 41.1941 13.695 41.6584 13.4565L41.9303 13.3187L42.1085 13.4247C42.3383 13.5572 43.1494 14.4952 43.3136 14.8184C43.9231 16.0055 43.759 18.1782 42.9759 19.1691C42.7696 19.4288 42.7462 19.503 42.8493 19.5454C42.9478 19.5878 43.1635 19.4394 43.3464 19.2009C43.4964 19.0102 43.5246 18.989 43.6136 19.042C43.8153 19.1691 44.0919 19.5878 44.1951 19.9375C44.3311 20.4039 44.3076 21.1246 44.1435 21.5114C44.0403 21.7552 43.7637 22.1261 43.6793 22.1261C43.6605 22.1261 43.5808 21.9036 43.5011 21.6333C43.2479 20.7695 42.8212 20.1124 42.5024 20.0965C42.418 20.0912 42.3383 20.1124 42.3289 20.1495C42.3195 20.1866 42.4367 20.3668 42.5915 20.5576C43.0744 21.1458 43.3276 21.8824 43.2901 22.6084C43.262 23.1754 43.0275 23.7265 42.6993 23.9968C42.3945 24.2512 42.2585 24.4313 42.2773 24.5479C42.296 24.6751 42.5024 24.7016 42.6852 24.5956C42.9713 24.426 43.5058 23.5358 43.5574 23.1489C43.609 22.7197 43.6277 22.6826 43.8293 22.5607C43.9419 22.4971 44.1201 22.3116 44.2326 22.1473L44.4342 21.8559L44.5796 21.9566C45.0203 22.248 45.4517 23.4616 45.3157 24.0286C45.2313 24.3889 44.7906 24.8553 44.2654 25.152L43.8434 25.3852H43.3042C42.7743 25.3852 42.7603 25.3905 42.704 25.5177C42.6712 25.5919 42.643 25.7138 42.643 25.7932C42.643 25.9469 42.1319 26.8425 41.86 27.1658C41.6677 27.3936 41.3958 27.542 40.88 27.6904C40.4955 27.807 40.2048 27.9607 40.2048 28.0613C40.2048 28.2309 40.9644 28.1885 41.3442 27.9924C41.6959 27.8123 41.9678 27.5155 42.4555 26.7895C42.6805 26.4557 42.9619 26.0794 43.0791 25.9522C43.2714 25.7562 43.3229 25.7297 43.5199 25.7297C43.6465 25.7297 43.9513 25.6555 44.2091 25.5601L44.6734 25.3905L44.8046 25.5654C44.9969 25.8303 45.2032 26.2967 45.2876 26.6623C45.5736 27.9077 45.0391 29.2166 44.0591 29.6829C43.7215 29.8472 43.684 29.9267 43.7637 30.34C43.8856 30.9918 43.7825 31.4529 43.4355 31.7867C43.2151 32.004 42.9806 32.0888 42.6055 32.0888C42.2773 32.0888 42.1741 32.1206 42.1741 32.2266C42.1741 32.4385 42.84 32.4491 43.4636 32.2531C43.7074 32.1736 43.8012 32.163 43.8247 32.2107C43.9278 32.3909 43.9794 32.7565 43.9794 33.3076C43.9794 33.8323 43.9606 33.97 43.8528 34.3092C43.684 34.8338 43.337 35.4803 43.0088 35.8831C42.5399 36.4501 41.8881 36.7522 41.1144 36.7522C40.3126 36.7522 39.8109 36.5296 39.1779 35.8778C38.7184 35.4061 38.6152 35.332 38.5636 35.4273C38.4652 35.6128 38.7512 35.9944 39.3983 36.5561C39.5577 36.6939 39.7124 36.8634 39.7359 36.9323C39.8343 37.2291 39.5577 37.7378 39.1966 37.9233C39.0607 37.9922 38.8919 38.024 38.6058 38.024C38.1416 38.024 37.9072 38.0982 37.9072 38.236C37.9072 38.4267 38.0385 38.4744 38.5589 38.4744C39.1357 38.4744 39.4217 38.3949 39.6609 38.1724C39.8859 37.9657 40.0125 37.6742 40.05 37.2821C40.0735 37.0118 40.0922 36.9641 40.1532 36.9906C40.1954 37.0118 40.472 37.0489 40.7674 37.0807C41.0629 37.1178 41.3114 37.1443 41.3161 37.1496C41.3583 37.1708 41.0207 38.4638 40.9034 38.7235C40.4861 39.6615 39.7031 40.1013 38.4699 40.1013C37.7665 40.1013 37.3211 39.9847 36.7584 39.6668C36.3504 39.4336 36.0644 39.1845 36.1629 39.1474C36.3833 39.0679 36.6412 38.856 36.7865 38.6387C36.96 38.379 37.0069 38.2466 37.1335 37.6583C37.2273 37.2238 37.307 37.0383 37.3961 37.0701C37.4336 37.0807 37.6024 37.1019 37.7712 37.1125C38.0666 37.1284 38.0947 37.1231 38.2542 36.9641C38.4183 36.7999 38.4792 36.5932 38.3667 36.5932C38.3339 36.5932 38.226 36.6197 38.1276 36.6515C37.7759 36.7575 37.1945 36.5508 36.8146 36.1798C36.5802 35.9467 36.3786 35.8937 36.327 36.0421C36.3129 36.0898 36.4067 36.36 36.5474 36.6727C36.7678 37.1496 36.7959 37.2609 36.7959 37.5365C36.7959 38.0134 36.6599 38.289 36.252 38.6122C36.0738 38.7553 35.8862 38.8719 35.844 38.8719C35.7503 38.8719 35.422 38.485 35.422 38.379C35.422 38.3472 35.4548 38.183 35.4924 38.024C35.5721 37.6901 35.5814 37.2397 35.5158 37.1231C35.4314 36.98 35.2954 37.245 35.2345 37.6636C35.1641 38.183 35.1172 38.3419 34.9484 38.6228C34.7843 38.9037 34.7093 38.9673 34.1091 39.3223C33.5558 39.6509 33.5042 39.7727 33.9122 39.7727C34.2592 39.7727 34.6905 39.5449 35.0047 39.1898L35.2157 38.9514L35.408 39.1103C35.6518 39.3064 36.5333 39.9529 36.6787 40.0324C36.8193 40.1172 36.81 40.1437 36.6036 40.3133C36.5099 40.3875 36.191 40.7054 35.8956 41.0128C35.3048 41.6328 35.0516 41.8024 34.367 42.0302C33.6168 42.274 32.8712 42.1998 32.4211 41.8395C32.3414 41.7759 32.2148 41.5851 32.1397 41.4102C32.06 41.2407 31.9803 41.0976 31.9569 41.0976C31.9053 41.0976 31.8209 41.3413 31.8021 41.5374L31.7881 41.6911L31.4645 41.3784C30.8362 40.7796 30.7284 40.3133 30.9206 39.0891L31.0285 38.4108L31.4411 38.7129C31.91 39.0626 32.3039 39.2375 32.3883 39.1421C32.482 39.0361 32.3695 38.9143 31.8443 38.5539C31.2629 38.1512 30.8925 37.7643 30.8175 37.4782C30.7893 37.3722 30.7799 37.2662 30.794 37.2503C30.8081 37.2291 31.0285 37.2821 31.2817 37.3669C31.7084 37.51 31.7975 37.5206 32.4914 37.5153C33.1479 37.5153 33.2745 37.4994 33.4995 37.3987C34.1185 37.1231 34.6015 36.4766 34.7374 35.74C34.7656 35.6022 34.7703 35.5969 35.0657 35.6234C35.4548 35.6605 35.5721 35.6234 35.7925 35.4008C36.0785 35.1094 36.1863 34.7649 36.2098 34.0919L36.2285 33.5249L36.402 33.6468C37.035 34.1025 37.4336 34.2191 38.2917 34.2138C39.3373 34.2085 40.1719 34.0071 40.6362 33.6468C40.9316 33.4136 41.2082 32.9791 41.5177 32.2743C42.0382 31.0713 42.2257 30.1652 42.0663 29.5928L42.0006 29.3491L42.2679 29.2908C42.6805 29.1901 43.1776 28.7979 43.4167 28.374C43.4777 28.268 43.5574 28.0454 43.5996 27.8759C43.6371 27.7116 43.6793 27.5579 43.6981 27.542C43.7121 27.5208 43.9044 27.489 44.1247 27.4731C44.5702 27.4307 44.7296 27.3459 44.7765 27.1181C44.814 26.9114 44.7296 26.6835 44.6171 26.6835C44.5702 26.6835 44.4389 26.7312 44.3264 26.7895C44.0122 26.9485 43.8528 26.9273 43.6793 26.71C43.5996 26.604 43.5339 26.4981 43.5339 26.4716C43.5339 26.3656 43.2854 26.1006 43.1823 26.1006C42.9619 26.1006 42.9759 26.6358 43.2104 27.0704C43.2901 27.2135 43.3464 27.3936 43.3464 27.4943C43.3417 27.8653 43.0041 28.4217 42.6243 28.6708C42.5164 28.7396 42.2585 28.8615 42.0428 28.9357C41.8272 29.0152 41.6396 29.1106 41.6255 29.153C41.6115 29.1954 41.6396 29.3438 41.6865 29.4815C41.8084 29.8313 41.799 30.4619 41.6677 31.0024C41.5177 31.6066 41.0582 32.6452 40.7909 32.9791C40.3783 33.4984 39.5436 33.827 38.5121 33.8747C37.5133 33.9223 36.8897 33.6892 36.2051 33.0109C35.6705 32.4809 35.6236 32.4438 35.5674 32.4809C35.4736 32.5498 35.5158 32.7512 35.6752 33.0056C36.0503 33.5991 35.9847 34.6854 35.5627 34.9716C35.4642 35.0352 35.272 35.0776 34.9766 35.1041C34.442 35.1465 34.3905 35.1889 34.3342 35.6499C34.2592 36.2699 33.884 36.7787 33.3307 37.0118C32.9556 37.1708 32.3226 37.245 31.9241 37.1761C31.1222 37.0383 30.5455 36.4448 30.5455 35.7718C30.5455 35.5969 30.6768 35.2578 30.8175 35.0617L30.9112 34.9292L30.9863 35.1359C31.0847 35.3955 31.1926 35.5333 31.2957 35.5333C31.488 35.5333 31.4411 35.2578 31.0566 34.1714C30.7799 33.3871 30.6533 32.8519 30.5877 32.2107C30.4986 31.2833 30.6768 30.1546 31.0847 29.1C31.2723 28.6231 31.3567 28.4747 31.5864 28.215C31.7412 28.0454 31.8584 27.8759 31.849 27.8388C31.8256 27.7593 31.6146 27.7222 31.4552 27.7646C31.3942 27.7858 31.2864 27.8918 31.2207 28.0083C31.1504 28.1249 31.08 28.2203 31.0613 28.2203C31.0144 28.2203 30.8737 27.6745 30.8737 27.4678C30.8737 27.1923 30.9956 26.7789 31.1551 26.5351C31.3895 26.1642 31.4176 26.1642 31.9897 26.4875C32.2663 26.6464 32.6415 26.8266 32.8196 26.8955C33.0025 26.9644 33.2463 27.0704 33.3683 27.1393C33.7246 27.3406 33.8747 27.1817 33.5746 26.922C33.4855 26.8425 33.2323 26.7047 33.0166 26.604C31.8397 26.0847 31.2254 25.5071 30.9581 24.6804C30.8737 24.4207 30.855 24.2247 30.8362 23.1966C30.8128 21.8665 30.8643 21.1882 31.0332 20.6212C31.2442 19.911 31.5864 19.0791 31.8631 18.5915C32.1773 18.0404 32.257 17.7807 32.1069 17.7807C32.0553 17.7807 31.9334 17.8655 31.835 17.9768C31.6662 18.1623 31.6568 18.1676 31.5349 18.0881C31.3567 17.9662 31.1316 17.6112 31.0191 17.2773C30.7799 16.5513 30.794 15.1788 31.0566 14.2991C31.2207 13.7427 31.2488 13.2711 31.1316 12.9054C31.0285 12.5715 31.0425 12.4497 31.2254 12.2218C31.5583 11.8085 32.4539 11.4269 33.1948 11.3845C33.6496 11.358 33.6824 11.3633 34.2592 11.5753C35.1126 11.8932 35.5439 11.925 35.2814 11.6601C35.1641 11.5435 34.0247 11.1778 33.5136 11.0983C33.0072 11.0136 32.6555 11.0824 32.046 11.3792C31.4833 11.6548 31.3473 11.6601 31.1316 11.4216C30.8925 11.1619 30.6862 10.6691 30.6862 10.367C30.6862 10.0756 30.8597 9.63575 31.1926 9.07932C31.4927 8.58119 31.7975 8.25793 32.2241 7.97707C32.5618 7.7598 32.7634 7.51073 32.7399 7.34116C32.7165 7.19808 32.5383 7.22457 32.3508 7.41005C31.8678 7.86579 31.3286 8.30033 31.291 8.25793C31.1879 8.14135 31.0988 7.51603 31.1222 7.07619C31.1598 6.36079 31.3286 5.97394 31.774 5.59769C31.8162 5.5606 32.0507 5.44931 32.2898 5.34863C32.8525 5.11546 33.1854 5.11546 33.5277 5.35393Z" fill="#FED7AA"/>
<path d="M36.2147 9.9748C36.2381 10.0278 36.3647 10.208 36.496 10.3775C36.7914 10.7538 36.8477 10.881 36.9227 11.2837C37.0446 11.962 36.8805 12.3171 36.3037 12.635C35.727 12.9477 35.7083 12.9477 35.4082 12.6668C35.2628 12.5344 35.1128 12.4284 35.0752 12.4284C34.9346 12.4284 34.9955 12.6774 35.2112 13.0007C35.3284 13.1809 35.455 13.4405 35.4926 13.5836C35.6192 14.0552 35.8911 14.3149 35.8911 13.9493C35.8911 13.785 35.8442 13.5306 35.7786 13.2975C35.7505 13.1915 35.7692 13.1809 36.0881 13.1491C36.496 13.1014 36.7492 12.9848 37.0024 12.7251C37.1853 12.5397 37.204 12.5344 37.5651 12.5344C38.0246 12.5344 38.2168 12.4655 38.3059 12.2641C38.381 12.1051 38.3997 11.8984 38.3435 11.8984C38.32 11.8984 38.2122 11.9302 38.0949 11.9726C37.9777 12.0097 37.7526 12.0627 37.5979 12.0839L37.3072 12.121L37.3306 11.7819C37.3822 11.04 37.1478 10.4358 36.6695 10.0596C36.4163 9.86352 36.1349 9.81582 36.2147 9.9748Z" fill="#FED7AA"/>
<path d="M32.8151 12.3807C32.801 12.4125 32.8526 12.5768 32.9323 12.7517C33.012 12.9212 33.0871 13.1544 33.1058 13.2604L33.134 13.4618L32.8573 13.4459C32.5291 13.4247 32.3275 13.4989 32.3275 13.6419C32.3275 13.732 32.379 13.7426 33.0683 13.7638C33.6591 13.785 33.8561 13.8115 34.0718 13.9016C34.6532 14.1348 34.972 14.5269 35.4644 15.5974C35.6941 16.0955 35.8536 16.3605 36.1724 16.7685C36.6319 17.3567 36.7351 17.6058 36.7351 18.1463C36.7351 18.459 36.6179 18.814 36.3881 19.1956C36.2287 19.4553 36.2334 19.5506 36.4303 19.9746C36.5194 20.1707 36.5944 20.3932 36.5944 20.4621C36.5944 20.637 36.4725 20.955 36.3459 21.1086C36.1255 21.3736 35.591 21.5962 35.1549 21.5962C34.9439 21.5962 34.897 21.575 34.8267 21.4584C34.5406 20.9867 34.2734 20.7483 34.0389 20.7483C33.8467 20.7483 33.8936 20.8914 34.2171 21.2729C34.5547 21.681 34.6251 21.8823 34.6251 22.4493V22.8415L34.3343 22.9051C34.1749 22.9422 33.992 23.0111 33.9264 23.0694C33.8045 23.1701 33.5231 23.5516 33.495 23.6576C33.4809 23.6947 33.3684 23.6735 33.1808 23.6099C32.5572 23.3873 32.0086 23.4191 31.6898 23.6894C31.521 23.8378 31.3428 24.2246 31.3428 24.4578C31.3428 24.7333 31.5022 24.6644 31.8961 24.2193C32.3884 23.6629 32.6229 23.6311 33.1715 24.0285C33.3356 24.1504 33.495 24.2458 33.5278 24.2458C33.5607 24.2458 33.6591 24.1451 33.7435 24.0285C34.2406 23.329 34.3531 23.2389 34.7048 23.2389C35.1737 23.2389 35.8114 23.753 36.0786 24.3518C36.4115 25.0831 36.3881 25.9151 36.013 26.7047C35.8676 27.0173 35.8536 27.0862 35.9051 27.1498C35.9895 27.2399 36.1818 27.1869 36.3037 27.0385C36.4209 26.8901 36.5475 26.3019 36.5475 25.9045C36.5475 25.7349 36.5663 25.5706 36.585 25.5335C36.6929 25.3428 37.3728 25.258 37.8276 25.3798C38.1746 25.4699 38.4184 25.5971 38.7654 25.8674C39.0796 26.1112 39.1546 26.0688 39.3468 25.5441C39.5016 25.1202 39.7032 24.8287 39.933 24.6909C40.0033 24.6485 40.2377 24.5797 40.4487 24.532C40.9364 24.426 41.0067 24.3889 40.8614 24.2988C40.7113 24.2087 40.1533 24.2617 39.8439 24.3942C39.4734 24.5532 39.2437 24.7863 39.0749 25.1785C38.9952 25.364 38.9201 25.5176 38.9155 25.5176C38.9108 25.5176 38.6763 25.4169 38.395 25.2951C37.9261 25.0884 37.8464 25.0725 37.4384 25.0672C37.1946 25.0672 36.9086 25.0884 36.8007 25.1149L36.6085 25.1573L36.5757 24.8923C36.5616 24.7439 36.4725 24.4578 36.3787 24.2511C36.1115 23.647 35.6754 23.2124 35.1408 23.0217C35.0002 22.9687 34.8876 22.9051 34.8923 22.8733C34.9017 22.8415 34.9205 22.6189 34.9345 22.3699L34.9673 21.9247L35.4409 21.9035C35.9942 21.8823 36.3271 21.7392 36.6272 21.4001C36.8992 21.0927 36.993 20.8384 36.993 20.4038C36.9883 20.0064 36.932 19.8262 36.7163 19.5665L36.5897 19.4129L36.7632 19.1532C37.0727 18.671 37.218 17.998 37.0727 17.6906C37.0211 17.5899 37.0352 17.5846 37.4384 17.5528C38.2918 17.4839 38.9436 17.2455 39.0796 16.9593C39.1499 16.8109 39.1077 16.4983 39.0092 16.4029C38.9483 16.3446 38.892 16.3817 38.6576 16.6095C38.2965 16.9646 38.0152 17.1024 37.5979 17.1342C37.3071 17.1554 37.2227 17.1395 36.9977 17.0229C36.4913 16.7579 36.1208 16.2651 35.5582 15.1045C35.0893 14.1295 34.5828 13.6737 33.8045 13.5254C33.5982 13.4883 33.4575 13.4353 33.4903 13.4141C33.6451 13.3081 33.4294 12.7994 33.0964 12.492C32.8995 12.3065 32.8667 12.2959 32.8151 12.3807Z" fill="#FED7AA"/>
<path d="M38.9672 12.598C38.8734 12.7517 38.8734 12.847 38.9859 13.3293C39.1172 13.9016 39.1078 14.2196 38.9437 14.6435C38.6811 15.3271 38.6905 15.396 39.136 15.661C39.5439 15.9047 39.7924 16.1432 40.116 16.5989C40.4676 17.0971 40.6927 17.5581 40.885 18.1675C41.3445 19.6301 41.1804 20.8755 40.3739 21.9777C40.0831 22.3752 39.6986 22.7037 39.136 23.027C38.8312 23.2071 38.728 23.2919 38.728 23.3714C38.728 23.7318 39.7408 23.2442 40.2332 22.6507C40.341 22.5235 40.5051 22.3222 40.5942 22.2056L40.763 21.9936L41.0584 22.1632C41.2835 22.2957 41.3914 22.4016 41.518 22.6136C41.7665 23.027 41.94 23.2389 42.0384 23.2389C42.2635 23.2389 42.0244 22.4652 41.7149 22.1844C41.5555 22.0466 41.2319 21.8558 41.0444 21.7922C40.9787 21.7657 40.9928 21.7127 41.1288 21.4001C41.3679 20.849 41.4383 20.3826 41.4101 19.4923L41.3867 18.7451L41.6868 18.4484C42.0337 18.0986 42.3104 17.945 42.5824 17.9397C42.8309 17.9397 43.0184 17.8602 43.0184 17.7595C43.0184 17.5687 42.2823 17.5846 41.94 17.7807C41.8321 17.8443 41.6399 18.0032 41.518 18.1304C41.2788 18.3848 41.2366 18.406 41.2366 18.2788C41.2366 18.0562 40.9272 17.3408 40.6927 17.0282C40.5567 16.848 40.4348 16.6466 40.4207 16.583C40.402 16.5036 40.4489 16.3764 40.5614 16.1803C40.7818 15.8093 40.9553 15.4225 40.9553 15.2953C40.9553 15.1628 41.0444 15.131 41.4007 15.131C41.6493 15.131 41.7477 15.1628 42.0103 15.3218C42.1838 15.4225 42.3714 15.502 42.4276 15.4914C42.5589 15.4702 42.587 15.237 42.4698 15.1204C42.3479 14.9986 41.743 14.8131 41.3257 14.776L40.9647 14.7442L40.9459 14.262C40.9318 13.8115 40.9178 13.7585 40.7724 13.5254C40.6083 13.271 40.3739 13.059 40.1488 12.9636C39.9378 12.8735 39.9472 12.9901 40.1722 13.2604C40.4207 13.5678 40.5051 13.7426 40.5755 14.1136C40.688 14.7071 40.5942 15.2794 40.2941 15.8729L40.1441 16.1644L39.844 15.7934C39.6799 15.5868 39.4876 15.3165 39.422 15.1893C39.3001 14.9615 39.3001 14.9562 39.361 14.5375C39.422 14.1189 39.4032 13.732 39.3095 13.1703C39.2626 12.9053 39.1078 12.4814 39.0563 12.4814C39.0469 12.4814 39.0047 12.5344 38.9672 12.598Z" fill="#FED7AA"/>
<path d="M32.8572 15.4862C32.7493 15.5339 32.7915 15.6081 33.0213 15.767C33.2229 15.9154 33.8278 16.6202 33.8278 16.7103C33.8278 16.7315 33.7434 16.8852 33.6402 17.0601C33.4245 17.4204 33.3636 17.6271 33.3261 18.0987C33.2979 18.4909 33.3683 18.9413 33.4996 19.2434C33.5511 19.3546 33.5933 19.45 33.5933 19.4553C33.5933 19.4606 33.4105 19.4712 33.1807 19.4871C32.7259 19.5189 32.5289 19.6037 32.182 19.927C31.9053 20.1919 31.774 20.4251 31.8631 20.4887C31.9756 20.5682 32.0319 20.5417 32.3133 20.2714C32.4633 20.123 32.6978 19.9429 32.8337 19.8634L33.0822 19.7256L33.7246 19.7839C34.3436 19.8475 34.4889 19.8263 34.4186 19.6938C34.3998 19.662 34.3061 19.6196 34.2123 19.6037C34.1138 19.5878 34.006 19.5454 33.9638 19.5136C33.8372 19.4076 33.6731 18.5174 33.7012 18.1093C33.7293 17.6854 33.8465 17.2667 33.9919 17.0601C34.081 16.9329 34.1373 16.9064 34.428 16.8799C34.8687 16.8322 35 16.7315 35 16.4506V16.2387L34.8265 16.2811C34.4139 16.3817 34.0857 16.2599 33.6543 15.8624C33.2932 15.5233 33.0354 15.4014 32.8572 15.4862Z" fill="#FED7AA"/>
<path d="M34.625 27.314C34.625 27.3405 34.6672 27.5153 34.7188 27.7008C34.7704 27.881 34.8126 28.0983 34.8126 28.1725C34.8126 28.3738 34.7188 28.6494 34.6063 28.7925C34.5125 28.9091 34.4843 28.9144 34.1327 28.8826C33.6966 28.8402 33.5512 28.8879 33.3121 29.1475C33.1996 29.2694 33.0589 29.3489 32.8526 29.4125C32.6932 29.4549 32.5056 29.5238 32.4446 29.5556C32.1821 29.6881 32.3977 29.8523 32.7494 29.7887C32.8526 29.7728 33.1574 29.651 33.4293 29.5185C33.6966 29.386 33.9451 29.28 33.9732 29.28C34.0014 29.28 34.1514 29.3436 34.3015 29.4178C34.5734 29.5556 34.5969 29.5609 35.2486 29.5291C36.0317 29.492 36.3599 29.4072 36.7866 29.121C37.2415 28.8137 37.3915 28.6229 37.3915 28.342V28.1089L37.2649 28.1884C37.1899 28.2308 37.0633 28.3473 36.9789 28.4533C36.8945 28.5593 36.7491 28.7024 36.6506 28.7766C36.3365 29.0097 35.2908 29.2906 35.0564 29.2058C34.9579 29.1687 34.9579 29.1687 35.0752 28.925C35.1689 28.7183 35.1877 28.607 35.1877 28.2096C35.1877 27.6743 35.122 27.473 34.9063 27.3458C34.7516 27.2557 34.625 27.2398 34.625 27.314Z" fill="#FED7AA"/>
<path d="M39.2059 27.8864C39.1403 27.9606 39.1778 28.2414 39.3372 28.7925C39.5294 29.4814 39.5717 29.7305 39.5248 30.0485C39.4263 30.7904 38.5635 31.0924 37.7852 30.6579C37.6257 30.5731 37.4851 30.4989 37.471 30.4989C37.4522 30.4989 37.335 30.6049 37.2037 30.7374C36.4535 31.4899 35.1218 31.7442 34.0434 31.3362C33.5979 31.1719 33.3213 30.9917 33.0024 30.6526C32.6742 30.3081 32.5054 30.2551 32.4772 30.4883C32.4538 30.6526 32.6789 30.8858 33.1759 31.2249L33.5698 31.4899L33.6073 31.776C33.6729 32.253 33.5885 32.4331 33.1759 32.7246C32.768 33.0108 32.7023 33.1009 32.7961 33.228C32.8524 33.3022 32.9133 33.3128 33.1103 33.2916C33.7104 33.2227 33.9355 32.8995 33.9121 32.1523C33.9027 31.9138 33.9074 31.7177 33.9168 31.7177C33.9308 31.7177 34.1184 31.7548 34.3388 31.8025C34.8921 31.9191 35.9096 31.8767 36.4066 31.7177C36.8052 31.5906 37.3913 31.2779 37.5085 31.1348C37.5835 31.0394 37.5929 31.0394 37.7476 31.1613C38.179 31.4899 39.1543 31.368 39.567 30.9334C39.7451 30.7427 39.8764 30.4141 39.8764 30.1386C39.8764 29.8842 39.6701 28.6919 39.567 28.3686C39.4966 28.146 39.3278 27.8493 39.2716 27.8493C39.2528 27.8493 39.22 27.8652 39.2059 27.8864Z" fill="#FED7AA"/>
<path d="M23.4185 45.0719V46.3438H29.8658H36.3131L36.3037 45.0825L36.2897 43.8266L29.8564 43.8107L23.4185 43.8001V45.0719Z" fill="#FED7AA"/>
<path d="M23.9344 47.2182C23.9344 47.2341 23.9344 47.8011 23.9297 48.4741V49.7089L29.7018 49.7248L35.4692 49.7354L35.4599 48.4794L35.4458 47.2182L29.6924 47.2023C26.5227 47.197 23.9344 47.2023 23.9344 47.2182Z" fill="#FED7AA"/>
<path d="M24.6377 51.9611V53.2329H29.6549H34.6721V51.9611V50.6893H29.6549H24.6377V51.9611Z" fill="#FED7AA"/>
</svg>
